<?xml version="1.0" encoding="utf-8"?>
<!-- Generator: Adobe Illustrator 23.0.1, SVG Export Plug-In . SVG Version: 6.00 Build 0)  -->
<svg version="1.1"
	 id="svg2" inkscape:version="0.91 r13725" sodipodi:docname="inkscape_template.svg" xmlns:cc="http://creativecommons.org/ns#" xmlns:dc="http://purl.org/dc/elements/1.1/" xmlns:inkscape="http://www.inkscape.org/namespaces/inkscape" xmlns:rdf="http://www.w3.org/1999/02/22-rdf-syntax-ns#" xmlns:sodipodi="http://sodipodi.sourceforge.net/DTD/sodipodi-0.dtd" xmlns:svg="http://www.w3.org/2000/svg"
	 xmlns="http://www.w3.org/2000/svg" xmlns:xlink="http://www.w3.org/1999/xlink" x="0px" y="0px" viewBox="0 0 155.7 182.5"
	 style="enable-background:new 0 0 155.7 182.5;" xml:space="preserve">
<style type="text/css">
	.st0{clip-path:url(#SVGID_2_);}
	.st1{fill:url(#path30_1_);}
	.st2{fill:#B7B7B7;}
	.st3{font-family:'ArialMT';}
	.st4{font-size:5px;}
	.st5{font-family:'ArialHebrew-Light';}
	.st6{fill:#B7B7B7;stroke:#666666;stroke-width:2;stroke-miterlimit:10;}
	.st7{fill:url(#SVGID_3_);}
	.st8{fill:url(#SVGID_4_);}
	.st9{fill:none;stroke:#666666;stroke-width:2;stroke-miterlimit:10;}
	.st10{fill:url(#path34_1_);}
</style>
<g>
	<g>
		<defs>
			<polygon id="SVGID_1_" points="0,45.6 0,136.9 77.8,182.5 155.7,136.9 155.7,45.6 77.8,0 			"/>
		</defs>
		<clipPath id="SVGID_2_">
			<use xlink:href="#SVGID_1_"  style="overflow:visible;"/>
		</clipPath>
		<g id="g14" transform="matrix(1.25,0,0,-1.25,0,182.5)" class="st0">
			<g id="g20">
				<g id="g22">
					
						<radialGradient id="path30_1_" cx="-1232.9032" cy="-1011.9619" r="1" gradientTransform="matrix(100.0918 0 0 -100.7749 123468.875 -101943.6797)" gradientUnits="userSpaceOnUse">
						<stop  offset="0" style="stop-color:#FFFFFF"/>
						<stop  offset="1" style="stop-color:#E4D9BF"/>
					</radialGradient>
					<path id="path30" inkscape:connector-curvature="0" class="st1" d="M3.3,38.8v68.9l59.4,34.4l59.4-34.4V38.8L62.7,4.4L3.3,38.8
						z"/>
				</g>
			</g>
		</g>
	</g>
</g>
<g id="g238" transform="matrix(1.25,0,0,-1.25,0,182.5)">
	<g>
		<g id="g240">
			<text transform="matrix(0.6934 0.399 0.399 -0.6934 61.7646 8.9454)" class="st2 st3 st4">w</text>
			<text transform="matrix(0.6934 0.399 0.399 -0.6934 64.165 10.3251)" class="st2 st3 st4">w</text>
			<text transform="matrix(0.6934 0.399 0.399 -0.6934 66.5627 11.7055)" class="st2 st3 st4">w</text>
			<text transform="matrix(0.6934 0.399 0.399 -0.6934 68.858 13.0266)" class="st2 st5 st4">.</text>
			<text transform="matrix(0.6934 0.399 0.399 -0.6934 69.3611 13.3157)" class="st2 st3 st4">b</text>
			<text transform="matrix(0.6934 0.399 0.399 -0.6934 71.1986 14.3727)" class="st2 st3 st4">i</text>
			<text transform="matrix(0.6934 0.399 0.399 -0.6934 71.9377 14.7977)" class="st2 st3 st4">o</text>
			<text transform="matrix(0.6934 0.399 0.399 -0.6934 73.7189 15.8227)" class="st2 st3 st4">c</text>
			<text transform="matrix(0.6934 0.399 0.399 -0.6934 75.1236 16.6313)" class="st2 st3 st4">o</text>
			<text transform="matrix(0.6934 0.399 0.399 -0.6934 76.9064 17.6563)" class="st2 st3 st4">n</text>
			<text transform="matrix(0.6934 0.399 0.399 -0.6934 78.6814 18.6774)" class="st2 st3 st4">d</text>
			<text transform="matrix(0.6934 0.399 0.399 -0.6934 80.5007 19.7251)" class="st2 st3 st4">u</text>
			<text transform="matrix(0.6934 0.399 0.399 -0.6934 82.2869 20.7524)" class="st2 st3 st4">c</text>
			<text transform="matrix(0.6934 0.399 0.399 -0.6934 83.7423 21.5907)" class="st2 st3 st4">t</text>
			<text transform="matrix(0.6934 0.399 0.399 -0.6934 84.7111 22.1469)" class="st2 st3 st4">o</text>
			<text transform="matrix(0.6934 0.399 0.399 -0.6934 86.4923 23.1719)" class="st2 st3 st4">r</text>
			<text transform="matrix(0.6934 0.399 0.399 -0.6934 87.2546 23.611)" class="st2 st5 st4">.</text>
			<text transform="matrix(0.6934 0.399 0.399 -0.6934 87.758 23.9001)" class="st2 st3 st4">o</text>
			<text transform="matrix(0.6934 0.399 0.399 -0.6934 89.5408 24.9259)" class="st2 st3 st4">r</text>
			<text transform="matrix(0.6934 0.399 0.399 -0.6934 90.5111 25.4844)" class="st2 st3 st4">g</text>
			<text transform="matrix(0.6934 0.399 0.399 -0.6934 61.7646 8.9454)" class="st2 st3 st4">w</text>
			<text transform="matrix(0.6934 0.399 0.399 -0.6934 64.165 10.3251)" class="st2 st3 st4">w</text>
			<text transform="matrix(0.6934 0.399 0.399 -0.6934 66.5627 11.7055)" class="st2 st3 st4">w</text>
			<text transform="matrix(0.6934 0.399 0.399 -0.6934 68.858 13.0266)" class="st2 st5 st4">.</text>
			<text transform="matrix(0.6934 0.399 0.399 -0.6934 69.3611 13.3157)" class="st2 st3 st4">b</text>
			<text transform="matrix(0.6934 0.399 0.399 -0.6934 71.1986 14.3727)" class="st2 st3 st4">i</text>
			<text transform="matrix(0.6934 0.399 0.399 -0.6934 71.9377 14.7977)" class="st2 st3 st4">o</text>
			<text transform="matrix(0.6934 0.399 0.399 -0.6934 73.7189 15.8227)" class="st2 st3 st4">c</text>
			<text transform="matrix(0.6934 0.399 0.399 -0.6934 75.1236 16.6313)" class="st2 st3 st4">o</text>
			<text transform="matrix(0.6934 0.399 0.399 -0.6934 76.9064 17.6563)" class="st2 st3 st4">n</text>
			<text transform="matrix(0.6934 0.399 0.399 -0.6934 78.6814 18.6774)" class="st2 st3 st4">d</text>
			<text transform="matrix(0.6934 0.399 0.399 -0.6934 80.5007 19.7251)" class="st2 st3 st4">u</text>
			<text transform="matrix(0.6934 0.399 0.399 -0.6934 82.2869 20.7524)" class="st2 st3 st4">c</text>
			<text transform="matrix(0.6934 0.399 0.399 -0.6934 83.7423 21.5907)" class="st2 st3 st4">t</text>
			<text transform="matrix(0.6934 0.399 0.399 -0.6934 84.7111 22.1469)" class="st2 st3 st4">o</text>
			<text transform="matrix(0.6934 0.399 0.399 -0.6934 86.4923 23.1719)" class="st2 st3 st4">r</text>
			<text transform="matrix(0.6934 0.399 0.399 -0.6934 87.2546 23.611)" class="st2 st5 st4">.</text>
			<text transform="matrix(0.6934 0.399 0.399 -0.6934 87.758 23.9001)" class="st2 st3 st4">o</text>
			<text transform="matrix(0.6934 0.399 0.399 -0.6934 89.5408 24.9259)" class="st2 st3 st4">r</text>
			<text transform="matrix(0.6934 0.399 0.399 -0.6934 90.5111 25.4844)" class="st2 st3 st4">g</text>
		</g>
	</g>
</g>
<g>
	<path class="st6" d="M11.2,121.4c0,0,1.1,9.3,9,9.3"/>
	<path class="st6" d="M29.2,121.4c0,0-1.1,9.3-9,9.3"/>
	<path class="st6" d="M24.7,121.4c0,0,1.1-9.3,9-9.3"/>
	
		<radialGradient id="SVGID_3_" cx="56.629" cy="76.9595" r="5.5675" gradientTransform="matrix(1 0 0 -1 0 184)" gradientUnits="userSpaceOnUse">
		<stop  offset="0" style="stop-color:#DEDFE0"/>
		<stop  offset="1" style="stop-color:#9E9988"/>
	</radialGradient>
	<path class="st7" d="M63.5,109.7c0,0.6-0.7,1.1-1.5,1.1H51.2c-0.8,0-1.5-0.5-1.5-1.1v-1.5c0-0.6,0-5,5.6-5h3.2
		c5.1,0,5.1,4.1,5.1,4.7L63.5,109.7L63.5,109.7z"/>
	
		<radialGradient id="SVGID_4_" cx="56.6285" cy="67.046" r="5.052" gradientTransform="matrix(1 0 0 -1 0 184)" gradientUnits="userSpaceOnUse">
		<stop  offset="0" style="stop-color:#DEDFE0"/>
		<stop  offset="1" style="stop-color:#9E9988"/>
	</radialGradient>
	<path class="st8" d="M49.7,115.6c0-0.3,0.7-0.6,1.5-0.6H62c0.8,0,1.5,0.3,1.5,0.6v0.7c0,0.3,0,2.5-5.6,2.5h-3.2
		c-5.1,0-5.1-2-5.1-2.4V115.6z"/>
	<line class="st9" x1="38.2" y1="112.1" x2="83.1" y2="112.1"/>
	<line class="st9" x1="51.7" y1="130.7" x2="70.9" y2="130.7"/>
	<path class="st6" d="M6.8,121.4c0,0,1.1,9.3,9,9.3"/>
	<path class="st6" d="M24.7,121.4c0,0-1.1,9.3-9,9.3"/>
	<path class="st6" d="M42.7,121.4c0,0-1.1-9.3-9-9.3"/>
	<path class="st6" d="M29.2,121.4c0,0,1.1-9.3,9-9.3"/>
	<path class="st6" d="M42.7,121.4c0,0,1.1,9.3,9,9.3"/>
	<path class="st6" d="M110,121.4c0,0-1.1,9.3-9,9.3"/>
	<path class="st6" d="M92.1,121.4c0,0,1.1,9.3,9,9.3"/>
	<path class="st6" d="M97.6,121.4c0,0-1.1-9.3-9-9.3"/>
	<path class="st6" d="M115.6,121.4c0,0-1.1,9.3-9,9.3"/>
	<path class="st6" d="M97.6,121.4c0,0,1.1,9.3,9,9.3"/>
	<path class="st6" d="M92.1,121.4c0,0-1.1-9.3-9-9.3"/>
	<path class="st6" d="M79.7,121.4c0,0-1.1,9.3-9,9.3"/>
	<path class="st6" d="M79.7,121.4c0,0,1.1-9.3,9-9.3"/>
	<path class="st6" d="M115.6,121.4c0,0,1.1-9.3,9-9.3"/>
	<path class="st6" d="M133.6,121.4c0,0-1.1-9.3-9-9.3"/>
	<path class="st6" d="M110,121.4c0,0,1.1-9.3,9-9.3"/>
	<path class="st6" d="M128,121.4c0,0-1.1-9.3-9-9.3"/>
	<path class="st6" d="M145.9,121.4c0,0-1.1,9.3-9,9.3"/>
	<path class="st6" d="M128,121.4c0,0,1.1,9.3,9,9.3"/>
	<path class="st6" d="M150.4,121.4c0,0-1.1,9.3-9,9.3"/>
	<path class="st6" d="M133.6,121.4c0,0,1.1,9.3,9,9.3"/>
	<path class="st6" d="M11.2,121.4c0,0-1.1-9.3-9-9.3"/>
	<path class="st6" d="M6.8,121.4c0,0-1.1-9.3-9-9.3"/>
	<path class="st6" d="M145.9,121.4c0,0,1.1-9.3,9-9.3"/>
</g>
<g id="g10" transform="matrix(1.25,0,0,-1.25,0,182.5)" inkscape:groupmode="layer" inkscape:label="Border">
	
		<g id="g32" transform="translate(0,109.0332)" inkscape:export-filename="/Users/Luke/Downloads/title.png" inkscape:export-xdpi="300" inkscape:export-ydpi="300">
		
			<radialGradient id="path34_1_" cx="13.5041" cy="-576.6912" r="83.9736" gradientTransform="matrix(1.25 0 0 1.25 45.3999 684.9915)" gradientUnits="userSpaceOnUse">
			<stop  offset="0.8322" style="stop-color:#C9C5A3"/>
			<stop  offset="1" style="stop-color:#BBA885"/>
		</radialGradient>
		<path id="path34" inkscape:connector-curvature="0" class="st10" d="M0,0v-71.7l62.3-35.9l62.3,35.9V0L62.3,35.9L0,0z M4.8-68.9
			v66.1l57.4,33.1l57.4-33.1v-66.1L62.3-102L4.8-68.9z"/>
	</g>
</g>
<g transform="translate(0,128) scale(0.011863,-0.011863)">
	<path d="M4821.9,6726.4c-9,13.6-11.8,14.1-41.8,11.4c-17.7-2.3-58.4-9.1-91.1-15.3c-32.8-6.8-64-13.1-69.2-14.7
		c-5.1-1.8-11.3-10.8-13.1-20.4c-2.2-9.7-18.6-33.4-36.1-52.7c-17.6-19.2-45.9-53.8-62.9-76.4c-16.9-23.2-45.9-58.9-63.9-80.4
		c-18.8-21-35.1-38.5-37.3-38.5c-2.2,0-7.3-6.2-10.8-14.1c-3.4-8-10.2-14.2-14-14.2c-4.5,0-14.9-5.1-22.8-11.3
		c-7.2-6.3-15.8-19.8-17.6-30c-2.3-11.3-11.4-26.5-22.5-36.8c-10.8-9.6-25-27.6-32.2-40.7c-8.1-14.1-26.1-31.6-46-45.3
		c-22.1-14.7-41.3-34-57.1-57.2c-13.1-19.8-35.1-43.5-48.7-53.2c-14.7-10.2-27.8-24.3-30.6-33.9c-3.4-9.7-13.5-27.8-23.1-41.4
		c-9.7-13.6-23.3-32.3-30-41.4c-6.8-9.5-19.2-22.6-28.1-29.4c-8.6-6.8-23.3-21.4-33-32.2c-9-10.8-21.4-23.3-26.5-28.3
		c-5.7-4.6-35.1-33.3-65.7-63.4c-30.4-30-62.2-56.5-69.6-58.2c-8.5-2.4-29.9-21.6-49.2-44.2c-19.3-22.6-45.4-49.8-58.9-60.5
		c-13-10.8-31.7-27.8-41.3-37.5c-9.1-9.5-27.3-23.1-39.6-30c-12.5-6.2-32.7-19.2-45.3-28.9c-12.4-9-28.9-17.6-36.8-18.1
		c-11.8-1.7-14.2,1.2-15.9,15.3c-0.5,9.6-3.9,28.4-6.8,42.4c-3.2,14.1-11.8,45.9-19,70.8c-8,24.9-18.2,61.7-23.4,82
		c-5.1,20.5-11.9,40.8-14.1,45.4c-2.8,4.4-12,21.4-20.3,36.7c-7.9,15.8-18.2,32.2-21.6,36.8c-3.9,4.5-12.4,18.1-19.3,30
		c-6.6,11.9-12.4,24.9-12.4,28.3c0,3.9,10.3,14.7,22.1,24.3c11.9,9.2,31.2,27.7,42.6,41.3c11.1,13.1,20.3,26.1,20.3,28.9
		c0,2.3,4.5,14.2,9.6,26c5.1,12.4,10.1,28.3,10.7,35.8c1.1,8.5,29,39.6,77.5,87.6c41.3,40.8,82.7,85.6,92.3,99.1
		c9.1,14.1,29.5,34.6,44.7,46.4c15.9,12,40.3,31.1,55.5,42.9c14.8,11.9,41.9,34.6,60.1,49.9c18,15.9,44.1,37.9,57.7,50.3
		c13.5,11.9,30.7,23.8,37.8,26.6c7.5,2.9,25,13,39.8,23.3c13.9,9.7,37.3,23.8,51.4,31.7c14.8,7.2,32.3,19.8,40.8,27.2
		c7.9,7.3,19.2,13.6,25.9,13.6c6.4,0,15.4,3.9,19.4,9.5c4.4,5.1,15.9,12.5,26,17.1c10.1,3.8,25.9,7.3,35.7,7.3c9.5,0,25.4,4,35.6,9
		c10.2,5.1,22,12.6,26.8,16.5c4.3,4.5,24.8,13.6,45.2,21.5c20.3,7.4,49.8,20.4,65.1,28.3c15.9,8,32.3,18.6,37.3,24.2
		c5.3,6.3,11.5,25,14.3,41.9c2.2,17,3.9,35.1,2.8,39.6c-0.7,4.5-5.6,12.4-10.8,17.6c-5.1,5.1-27.2,14.8-48.8,21.5
		c-21.4,6.3-53,11.9-70.2,11.9c-20.8,0-34.9-3.5-45.8-10.7c-8.6-6.3-30.6-16.5-49.6-22.6c-19.5-6.3-46.5-19.8-60.6-29
		c-14.3-9.6-27.3-19.7-28.9-22.6c-1.6-2.8-10.8-6.1-20.3-8.4c-9.8-2.3-25.7-11.3-35.2-20c-10.2-8.3-30-19.2-43.4-23.1
		c-14.4-4.1-31.3-6.2-38.7-5.7c-7.5,0.5-16.9-1.8-20.7-5.1c-4.7-4.1-15.4-7.4-23.9-8.5c-9.1-0.7-22.7-4.5-31.7-8.6
		c-13.7-6.8-16.9-6.2-29.5,5.7l-14,13.5l-15.8-19.2c-16.1-18.1-18.2-19.2-80.5-25.9c-35.1-4.1-66.3-6.3-68.5-4.6
		c-2.8,1.7-11.7-1.2-21-5.7c-9-4.5-36.2-10.1-61.2-11.9c-24.2-2.2-67.3-7.4-95.5-11.9c-29.6-4.5-113.2-9-198.2-10.7
		c-81-1.8-166-4.5-188.6-7.5c-22.5-2.2-42.3-2.8-44-0.5c-1.2,2.1,7.8,16.4,20.2,31.1c12.6,15.2,22.7,31.1,22.7,35.1
		c0,3.9,4.7,19.2,10.8,34c5.6,14.7,13.5,44.7,17.5,66.1c3.4,22.1,9.6,54.4,13,71.9c5.2,28.3,5.2,34-3.4,43.1
		c-5.5,6.2-24.3,13.6-41.8,17.5c-17.5,3.4-37.3,5.6-43.7,5.2c-6.8-0.7-22.1-1.8-34.4-2.9c-17.1-1.7-29.5-9.1-51-27.7
		c-15.2-14.2-44.8-41.4-65.2-61.2c-20.2-19.3-46.3-43-57.8-52.6c-11.2-9.6-31-37.3-43.6-62.3c-18.6-34.6-24.2-53.8-28.3-88.3
		c-3.9-36.2-11.4-57.1-43.5-126.3c-29.5-62.8-45.3-89.4-65.2-109.2c-14-14.1-30-32.9-34.9-41.3c-5.1-8.4-14.1-17.6-19.4-20.4
		c-5.7-2.8-34.5-2.8-63.8-0.6c-41.4,2.8-58.4,2.3-73.1-4c-10.6-4.5-32.9-18.7-49.8-32.3c-16.4-13.1-46.9-37.5-66.8-54.3
		c-20.3-16.4-36.9-33.5-36.9-37.9c0-4-7.9-14.7-16.8-23.2c-13.1-11.9-18.2-22.6-20.4-41.3c-1.3-14.2-5.1-33.4-8.5-43.5
		c-3.5-10.2-7.9-38-10.8-62.3c-2.8-24.4-7.9-55.4-11.2-69.7c-3.5-14.1-6.3-27.7-6.3-31c0-2.9,1.8-17.7,4-32.3
		c3-21.5,1.6-29.4-8.5-43.6c-6.8-9.1-15.9-26.1-20.9-37.5c-4.5-11.2-15.4-24.8-23.9-29.3c-9.5-5.7-22-22.1-31.1-42.5
		c-8.3-18.2-22.6-41.4-31-51.5c-9.1-9.6-20.5-28.9-26.1-41.9c-6.2-13.5-15.3-25.5-20.3-27.2c-5.2-1.7-14.2-1.7-19.3,0.7
		c-5.1,1.6-9.1,0.6-9.1-2.8c0-4-17-24.9-38-47.5c-20.8-22.6-45.8-46.4-54.8-53.8c-9.6-6.7-24.4-24.9-33.4-40.8
		c-8.4-15.1-20.3-29.4-26.6-31.2c-5.6-1.6-11.9-9.6-13.5-17.6c-2.4-7.4-10.2-17-17.7-20.3c-8-3.5-14.1-8.5-14.1-10.8
		c0-2.2-12.4-17-27.2-31.7c-15.2-14.6-32.1-33.9-37.9-42.4c-5.1-9.2-13-15.8-17.5-15.8c-4.5,0-14.8-7.5-23.2-17
		c-8-9.2-18.8-17.1-22.7-17.1c-4.5,0-15.1-4-24.4-8.4c-8.6-4.6-24.4-20.5-34-34.6c-9.4-14.7-31.1-41.8-46.9-60.5
		c-16.5-18.7-35.7-39.6-43.7-47.5c-7.9-7.3-28.7-27.2-46.5-43.6c-26.3-24.3-32.7-33.3-32.7-48.2c0-11.2,3.4-19.1,9.6-21.5
		c5.2-2.1,22.1,2.9,39.1,12c17,9,36.3,21.5,43.1,28.7c7.3,6.9,28.3,30.2,46.8,51c18.7,21.2,39.7,43.6,46.5,51
		c6.8,7.3,18.6,15.2,25.4,17.6c7.4,2.2,28.4,16.3,47.1,32.2c18.7,15.9,41.8,35.8,50.8,44.3c9.8,8.4,33.3,31.6,53.8,51.4
		c20.3,19.8,49.7,49.8,65.5,66.8c15.9,16.9,47.1,47.5,69.8,68c22.6,20.4,45.2,37.3,50.9,38.4c6.2,1.1,26,18.1,45.2,38
		c19.3,19.8,34.6,39.6,34.6,44.1c0,5.1,10.2,19.3,23.3,32.8c12.4,13.1,29.5,32.4,36.8,42.6c7.9,10.1,19,20.4,25.4,22
		c6.2,2.3,14.7,11.3,19.7,20.9c5.1,9.7,21,30,34.5,45.4c14.3,14.7,29,27.1,32.9,27.1c4,0,20-11.3,35.7-25.4
		c15.9-14.2,37.2-29.4,47.5-34c10.8-3.9,22.5-11.8,27.3-16.4c3.8-5.1,9-9.1,11.7-9.1c3,0,16-7.3,28.9-16.9
		c12.4-9.1,27.2-17.1,32.2-17.1c5.3,0,25.6-5,45.3-11.3c22.8-7.4,43-10.2,54.4-7.9c12,2.3,25,0,35.1-5c9-5.1,27.8-8.6,41.9-7.9
		c18.1,0.5,29.4-3,43.2-12.4c16.2-12.5,22-13.1,56.6-10.3c24.9,1.7,42.9,0.6,51.5-3.9c12-6.2,10.2-9-56.6-77
		c-38-38.4-83.1-82.1-100.1-96.2c-17.7-14.6-38.5-30.7-47-36.2c-9.2-5.6-15.9-12.4-15.9-15.8c0-2.8-18.8-24.4-40.8-48.2
		c-22.8-23.1-55.5-57.1-72.4-74.7c-17.5-17.6-44.1-42.4-59.5-56.1c-15.9-12.9-41.8-34.5-57.6-47.5c-16.4-13-31.2-27.7-32.9-32.9
		c-1.8-5.1-12.4-15.1-24.2-22.6c-11.3-7.3-31.2-25.5-43.6-40.2c-12.4-14.7-30-30-39.6-34c-9-3.4-34.1-23.7-55-44
		c-20.3-20.5-49.7-47.5-65.2-60.6c-14.7-12.4-34.5-27.8-44.1-34c-9.1-5.7-18.8-13.5-21.6-17c-2.1-4-12.3-12.4-23.1-18.7
		c-12-7.4-26.7-11.4-37.9-10.7c-17,1.7-19.3,0-18.2-10.7c1.2-10.2-6.6-18.3-39-39c-22.2-14.3-47-28.4-55-31.2
		c-7.9-3.3-25.9-11.3-40.2-17.5c-14.1-6.9-32.2-17.9-40.7-24.9c-8.4-6.9-29-17-45.2-21.6c-16.5-5.2-41.6-15.2-55.6-23.1
		c-14.2-7.9-47-24.9-73.5-37.4c-27.2-13.5-62.3-25.5-81.1-27.7c-18-2.8-53.8-13.6-79.2-24.4c-25.5-10.6-58.9-22.6-74.7-26
		c-15.3-2.8-45.8-9.6-67.9-14.6c-21.4-4.7-45.3-8.5-52.7-8.5c-7.3,0-18.6-2.8-25.4-6.9c-6.9-3.8-31.7-8.9-54.9-11.3
		c-23.2-2.1-66.9-6.8-96.3-9.5c-29.4-3.5-67.4-9.7-84.3-14.2c-23.8-6.7-68-9.5-186.3-10.7c-18-0.3-33.9-0.5-48-0.7
		c-9.6-28.6-21.8-55.5-33.8-82.6c19-2.2,36.5-2.4,62.1,1.4c32.2,5,51.5,5,81.3,0c34.1-5.8,41-5.8,48.2,1.6
		c5.2,4.6,11.4,8.5,14.2,8.5c3.5,0,10.9-2.8,17.1-6.2c7.3-3.4,14-3.9,18-0.5c4.1,2.8,28.3,8.4,55,12.4c34.5,5,56.6,5,79.2,1.1
		c17-2.8,51-3.8,75.3-2.8c36.8,2.8,45.9,1.8,54.9-6.8c9.7-8.5,13.6-9.2,28.3-2.8c10.9,4.5,27.2,5.6,42.6,3.8c14-2.2,29.9-6.2,34.9-9
		c5.8-2.8,21-9.7,34-14.7c20.4-8.4,26.5-9.1,41.3-2.8c9.7,3.8,25.5,5.8,36.3,3.8c10.1-1.4,21.5-1,25.3,1.9
		c4.1,2.1,14.2,1.6,22.7-1.3c12.6-4.9,20.4-2.8,50.5,15.3l35.6,21l22-15.3c12-8.5,30-15.4,40.3-15.4c10.6,0,53.7,1.2,95.6,3.4
		c41.9,2.3,80.9,5.1,86.5,6.8c5.8,1.7,14.1,0,18.8-4c5-3.9,24.2-8.9,42.9-11.1c26.6-2.8,40.4-1.8,65.2,6.8
		c31.1,11.2,31.1,11.2,55.5-0.7c18.6-8.9,31.6-11.3,54.8-8.9c16.4,1,40.8,0,53.8-2.8c14.3-3,34.7-3,52.1,0.4
		c21.1,3.8,39.1,13.5,66.8,34.5c21.6,15.7,50.4,40.8,65.5,55.4c14.8,14.3,30.1,26.1,34.2,26.1c3.2,0,12.3,4,19.7,8.6
		c6.7,4.4,12.5,12.9,12.5,19.3c0,5.5,14.2,27.1,31.7,46.8c17.5,19.9,40.3,44.1,49.2,53.8c9.7,9.7,25,28.4,33.5,41.9
		c8.5,13.5,34.5,46.4,58.3,72.5c23.2,26.6,42.5,50.5,42.5,53.2s7.9,15.2,17.5,27.2c10.2,12.4,26.6,35,36.8,50.3
		c10.7,16,30.5,43.6,44.8,62.3c13.5,18.6,31.7,47,40,62.2c8,15.9,23.8,37.5,35.8,48.2c11.4,10.6,27.2,31.1,36.3,45.2
		c8.4,14.3,20.8,34,28.2,44.2c6.8,10.1,24.4,33.5,38.5,50.9c14.1,17.7,36.8,49.8,50.5,72.1c13,21.4,28.9,42.9,33.8,48
		c5.8,4.5,13.1,17.6,17.7,28.4c3.9,10.7,9,20.8,10.6,22.5c2.3,1.6,18.6,22.7,37.5,47.5c18.1,24.4,42.3,59,53.3,77.1
		c10.6,18,32.7,47.5,48.6,65.1c25.4,28.9,30,31.7,40.9,26c7.9-4.5,20.1-4.5,41.2-0.6c15.9,3.5,45.3,5.7,65,5.7
		c19.2,0,36.8-2.2,38.5-5.1c1.9-2.3,27.9-6.3,58.5-8.5c29.9-2.3,59.3-6.9,64.4-9c5.8-3.5,10.7-16.5,13.6-35.2
		c2.5-16.3,4.6-43,4.6-58.8c0-22.1-3.4-35.7-15.9-56.7c-8.5-14.7-29.5-40.2-46.4-56c-18.2-17.4-30-33.9-30-41.4
		c0-10.1,3.5-12.4,19.8-12.4c17.5,0,19.8-1.6,19.8-14.1c0-8-7.9-28.9-18.1-47c-9.7-17.5-24.4-41.3-32.3-52.1
		c-8-10.9-25.5-31.2-39.6-45.3c-13.5-14.2-30.6-34.5-37.3-45.4c-6.8-10.7-18.2-24.2-24.3-30.4c-6.9-5.7-14.9-20-18.7-31.2
		c-3.4-11.3-14.7-29.4-25-40.3c-9.5-10.7-28.1-36.6-41.2-57.6c-13-21-23.9-40.2-23.9-43c0-2.9-6.7-10.9-14.7-18.7
		c-7.9-7.4-27.1-34-42.4-59.4c-16-25.1-49.3-66.9-74.6-93.3c-26.1-26.1-56.7-53.9-68.1-61.9c-11.4-8-22.7-18.6-24.2-24.2
		c-1.8-5.7-23.9-30.2-48.8-54.4c-24.9-24.8-48.8-50.9-53.3-58.4c-3.8-6.8-15.8-29.3-25.5-49.7c-13-26.1-18.6-44.2-18-63.4
		c0-15.4,4-32.9,9.7-41.3c7.9-12.6,13-14.8,24.9-11.5c8.6,1.8,24.4,5.8,35.7,9.1c11.2,2.8,30,11.3,41.2,19.3
		c11.5,7.9,24.5,14.1,28.4,14.1s16.9,5,30,11.4c14.8,6.6,25.4,16.9,30,28.2c3.9,9.6,13.7,22,21,28.3c7.5,5.7,19.9,19.3,27.2,29.3
		c7.3,10.2,25.4,36.4,40.2,57.8c14.7,21,36.3,50.5,48.2,65.2c11.8,14,24.9,29.8,28.7,34.5c4.6,5,14.8,21.5,24,36.9
		c9,15.8,21.9,35.6,28.1,44c6.8,8.6,18.8,23.8,27.4,34c8.4,10.1,16.9,25.5,18.6,33.2c2.2,8.1,16.3,31.7,31.7,53.3
		c15.2,21.5,39.6,57.1,54.4,78.7c14.1,22.1,37.2,52.6,50.3,68.3c13.7,16.1,24.9,31.3,24.9,33.6c0,2.2,9,18,20.5,35.1
		c10.8,16.3,25.5,36.1,32.1,43.5c6.8,7.4,38.1,48.7,69.1,92.2c31,43,65.8,87.3,77.1,98c11.4,10.8,24.9,28.4,29.9,38.4
		c5.2,10.3,13.6,20.5,18.1,22.2c4.5,1.7,13.1,11.8,18.2,22.5c5.8,10.9,30.6,41.3,55,68c24.9,26.6,62.2,67.4,83.7,90
		c21,22.6,38,44.7,38,49.2c0,4.5,5.7,14.1,13,22.1c6.8,7.9,22.5,29.5,35.2,47c12.4,18.1,26,35.7,30.6,39c3.8,3.4,17.5,16.4,30,28.9
		c12.4,11.9,29.4,31.7,36.8,43.1c8,11.9,17.4,22.7,21.4,24.3c4.1,1.2,23.3,21,42.4,44.1c19.8,22.7,80.5,88.4,135.3,145.6
		c55.1,57.2,117.8,123.3,139.9,147.1c22.2,23.8,51.1,57.1,64.7,74.3c13,16.9,31.2,35.5,40.2,41.2c9,6.3,16.2,13,16.2,15.9
		c0,2.8,14.9,17,33.4,31.1c18.2,14.2,38,34,43.6,44.7c5.8,10.7,15.9,20.3,23.4,22.6c7.3,1.8,23.6,17.6,37.2,35.6
		c13.1,17.6,48.2,56.7,77.5,86.1c30,29.5,76,74.2,102.5,99c26.1,25,53.2,54.3,60,65.1c6.8,10.8,14.8,30.6,18.8,44.2
		C4829.8,6708.3,4829.8,6714.5,4821.9,6726.4z M3130,5921.5c-2.2-8.5-30.6-41.2-62.8-73.6c-32.9-32.4-59.4-61.7-59.4-64.6
		c0-3.3-20.4-26.7-45.2-52.1c-24.4-25.4-56.1-58.3-70.2-73.6c-14.2-15.3-30.7-27.7-36.3-27.7c-6.4,0-14.1,4-18.2,8.4
		c-5.5,6.8-9,7.4-14.7,2.3c-6.2-5.1-10.1-4.5-16.4,0.6c-4.5,3.9-11.9,5.6-16.4,3.9c-4.5-1.6-17.5,2.8-28.9,10.8
		c-11.3,7.3-22.7,13.6-26,13.6c-2.9,0-13.6,3.9-23.2,9c-14.7,7.5-19.9,7.9-31.2,1.7c-11.8-6.2-17.4-5-44.8,8.6
		c-23.1,11.9-36.6,15.2-50.3,13c-14.1-2.3-23.3,0-37.3,10.7c-10.2,7.4-24.9,13.6-32.3,13.6c-7.5,0-17.6,2.3-23.3,5.6
		c-5.6,2.8-19.8,13.5-31.8,23.8c-11.9,10.2-26.5,23.1-32.1,28.9c-5.8,5-10.2,16.4-10.2,24.3c0,10.2-6.7,21.5-19.8,34
		c-18.2,17-19.9,21-16.5,39.1c2.2,12.5,11.2,26.6,25.5,39.7c12.4,10.7,25.5,19.8,30,19.8c4,0,12,6.2,16.2,13.6
		c5.3,7.3,33.7,38.4,63.6,68.5c29.3,30.5,53.8,56,53.8,57.2c0,1.2,7.9,9.6,17.5,19.2c10.3,9.1,21.1,16.9,24.4,16.9
		c3.5,0.7,13.1,11.4,22.1,25c8.6,13.6,15.2,27.1,15.2,29.9c0,2.9,3.5,8.5,7.6,12.5c5.1,5.6,19.6,6.8,60.5,3.9
		c42.9-2.8,61.1-7.3,91.7-21.4c27.1-12.5,41.7-16.5,53.3-13.6c7.9,2.3,28.3,1.1,44.7-2.8c25.4-5.6,32.8-10.7,51.4-34
		c15.9-20.4,28.9-30,47.6-36.2c14.1-4.5,35.6-8.5,48.1-9.6c22.7-1.6,22.7-2.2,46.4-49.7c13.1-26.7,25.5-56.7,27-66.3
		C3131.9,5944,3131.9,5929.5,3130,5921.5z M3355.9,6140c-6.2-6.8-20.9-18.8-32.8-26.1c-11.9-7.9-23.7-14.2-27.1-14.2
		c-2.9,0-14.8,9.1-25.4,19.8c-10.8,11.3-29.4,26.1-40.8,34c-11.4,7.4-35.8,23.8-53.1,36.8c-18.4,12.4-36.3,22.6-40.9,22.6
		c-4.5,0-16.9,5.1-27.1,10.8c-10.3,6.1-29,13-41.4,15.3c-12.5,1.6-26.6,6.8-31.2,10.7c-4.5,4-23.1,14.2-41.8,22.1
		c-18.1,7.9-37.9,14.6-44.1,14.6c-6.3,0-16.5,3.5-23.3,6.9c-6.8,4-22.7,7.9-35.2,8.6c-12.4,0.5-43.5,2.1-69.1,2.8
		c-33.9,1.1-49.2,4.5-55.9,10.7c-8.6,8.5-6.8,13,20.3,57.7c19.3,32.8,34.5,51.5,46.5,57.7c9.5,4.6,22,8.5,27.1,8.5
		c5,0,14.1,5.1,19.8,11.3c5.6,6.2,14.2,11.4,18.5,11.4c4.7,0,16,8.6,26.2,19.2c10.7,11.9,31.2,23.8,53.3,31.7
		c20.3,7.3,39.6,18.6,44.1,25.5c6.8,10.2,15.2,13.6,40.6,15.8c20.4,1.6,39.1,0,51.6-5.2c10.3-4.5,25.5-7.9,33.4-7.9
		c7.9,0,19.7,4.5,25.9,10.2c6.8,5.6,24.4,15.3,39.8,20.9c20.8,7.4,37.3,9.1,68.3,6.8c24-1.7,49.4-7.4,60.1-13.6
		c15.9-8.5,30.6-10.2,84.4-9c42.6,0.5,73.6,3.9,90,9.5c13.6,5.1,31.1,9.1,39.5,9.1c8.1,0,31.2,5.1,51.5,11.4
		c20.4,6.2,48.2,11.3,61.8,11.3c14.2,0,32.2,4.5,42.3,10.7c9.8,5.6,28.4,12.4,41.5,14.8c12.8,1.6,26.5,7.3,30.5,11.8
		c3.3,4.6,10.2,8,14.7,8c4.5,0,13-2.8,18.6-5.6c10.2-5.7,9.1-7.9-14.6-39.6c-14.3-18.7-27.7-34-30.7-34c-2.8,0-8.5-3.4-12.4-6.8
		c-4.6-3.9-22.6-21.4-41.3-38.4c-18.6-17-36.4-38-39.6-46.5c-2.8-8.4-22.1-32.8-42.6-53.8c-20.3-21.5-49.2-52-64-68.5
		c-15.2-16.3-30.5-29.4-34.5-29.4c-3.9,0-11.7-5.1-17.9-11.3c-5.7-6.2-18.2-20.4-27.9-31c-9.1-10.9-33.4-36.3-53.8-56.7
		c-20.3-19.7-44-43.5-53.8-52.6C3375.1,6159.8,3362.2,6146.7,3355.9,6140z"/>
	<path d="M3366.7,5787.3c16.3-24.9,20.8-38.5,26.6-80.9c3.3-27.8,11.3-63.4,17-78.1c6.1-14.7,10.7-28.3,10.7-29.4
		c0-1.2-29.4-1.7-65.1-0.5c-51.4,1-66.8,2.8-75.2,10.7c-7.5,6.8-20.5,9.6-45.3,9.6c-30,0-35.1,1.8-35.1,10.2
		c0,5.7,10.9,24.4,24.3,41.9c12.8,17.6,34.1,45.9,46.5,64c12.4,17.6,29.4,41.4,38.5,52.1c8.4,11.3,15.3,22.6,15.3,24.9
		c0,2.9,5.1,5,11.3,5C3343.4,5816.7,3354.2,5806.6,3366.7,5787.3z"/>
	<path d="M4022.9,2627.6c38.6,1.5,84.1,4.9,101.9,8.6c17.6,4,47.8,6.8,66.9,7.8c19.3,0.9,54.2,2.5,77.8,3.5
		c23.6,1.2,51.5,4.4,62.2,8.2c10.2,3.3,22,9.1,26.3,12.4c4.2,4,15.5,6.3,29.3,6.3c13,0,35.5,4.6,51.5,10.4
		c23.2,7.9,40.8,10.5,85.7,12c31.6,1,67.6,4.3,79.9,6.9c17.2,4.3,24.7,4.3,32.7,0.5c6-2.7,10.3-3.1,10.3-1c0,2.3,7.5,7.2,16,10.4
		c10.8,4.6,22.6,5.9,34.9,3.7c15-2.1,21.5-0.2,35.4,8.5c9.1,5.5,20.9,10.4,26.2,10.4c5.3,0,19.8,4.8,32.1,9.9
		c17.1,7.4,27.2,9.2,45.5,7.4c17.2-1,29.5,0.7,44.6,6.8c12.2,4.9,38,9.7,61.6,11.1c23,1.6,41.1,4.5,41.1,6.5
		c0,2.3,10.4,8.7,22.7,14.7c12.3,5.8,30,12.1,38.6,14.2c9.1,1.6,29,4.2,43.4,4.9c15,1.2,36.4,4.9,47.8,8.7
		c16.9,5.3,29.4,5.7,79.3,2.5c32.2-2.1,69.1-2.9,81.9-1.5c17.1,1.8,29.1,0,46.2-5.9c14-4.9,40.7-9.7,63.8-11.2
		c21.9-1.2,62.1-3.1,88.4-4.1c26.8-0.9,70.1-3.4,96.4-5.4c29-2,63.3-2,86.3,0c34.4,3.6,40.8,3,60.5-4.8l22.5-8.7l15.1,8.1
		c12.9,7.2,20.4,7.9,49.4,5.9c18.8-1.5,43.8-2.5,55.7-2.1c11.7,0.2,44.5,1.1,72.3,2.1c27.8,0.8,55.8,2.8,61,4.9
		c7.1,2.5,11.3,2.1,13-1.2c1-3,10.1-5.3,19.8-5.3c10.2,0,19.9,2.3,21.4,4.3c1.7,2.5,7.1,4.3,11.4,4.3c4.1,0,15-4.3,23.6-9
		c13.7-8,19-8.5,54.6-5.8c21.5,1.5,42.3,5.3,46.5,7.7c5.4,3.8,46.2,4.9,136.8,4.9c116.8,0,131.2,0.7,144.6,7.2
		c10.8,5.9,19.8,7.1,32.1,5c9.3-1.5,26.4-2.4,38.3-2.4c11.7,0.5,40.7,1.6,64.1,2.4c23.6,1.2,63.2,2.6,88.4,3.4
		c25.3,0.8,73,3.6,106.8,6.1c43.3,3.5,68.4,3.5,87.3,0.4c24-4.1,27.8-3.7,39,4.6c11.4,8.2,15,8.6,28,4.4c10.7-3.1,25.2-3.1,52.5-0.3
		c20.7,2.5,43.3,4.6,50.8,4.6c7.6,0,23.1,2,34.8,4.4c11.9,2.6,29,5,37.5,6c9.4,0.8,69.2,2.4,134.3,3.5c100.6,2.2,125.9,4.3,173.7,13
		c30.4,5.7,61.3,9.5,67.8,8.1c7.1-1.5,24,1.4,38.5,5.3c14.2,4.5,41.4,10.5,60.7,12.9c18.8,2.5,39.1,6.3,45,8.1
		c5.9,2.1,31.2,3.8,56.3,4.4c25.2,0,56.2,1.2,69.7,1.8c13.3,0.8,44.5,3.5,69.6,5.8c25.1,2.1,74.5,9.3,109.9,16.5
		c35.3,6.9,72.8,12.6,83.6,12.6c11.3,0,25.2,3.9,33.8,8.8c9.2,5.3,26.7,9.7,48.2,11.9c18.9,1.6,38.6,4.8,44,7.4
		c5.9,2.5,29.4,6.3,53,8.6c23.6,2.6,53.6,5.4,67,6.7s42.3,3.9,64.2,5.7c22.2,2,48.8,6.4,59.2,9.9c10,3.3,33,7.1,50.9,8.3
		c18.1,1.2,45.4,6.2,60.5,10.8c16,4.8,40.7,8.6,56.3,8.6c15.5,0,30.9,2,34.2,4.5c3.7,2.7,24,5.3,45.5,6.3
		c22.1,0.2,53.2,4.9,70.9,9.2c21.5,5.9,44.9,8.7,72.3,8.7c32.5,0,45.6,2.1,64.9,10c15.9,6.5,38,10.6,67.1,12.8
		c28.8,2,48.6,5.7,61.6,11.4c13.8,6.7,25.7,8.8,51.9,7.8c22.5-0.5,41.3,2.1,56.8,7.2c12.9,4.5,37.5,9.8,55.2,12.8
		c17,2.8,40.8,8.6,51.5,12.7c11.2,4.6,29.5,7.9,40.6,7.9c11.3,0,25.3,2.8,31.1,6.1c5.3,3.4,15.6,6.1,22.6,6.1c7,0,30.7,4.5,52,10.3
		c21.2,5.5,53.5,12.1,70.7,14c17.1,2.1,47.8,9.6,68.1,16.5c32.7,11.5,39,12.4,55.2,8.4c15.5-3.7,22.1-3.4,40.8,4
		c12.3,4.7,44.5,15.3,70.6,23.5c26.9,8.2,54.8,18.5,62.6,22.7c7.7,4.5,23.2,7.8,35,7.8c11.3,0,43.4,4.5,71,10.4
		c28.1,5.8,58.2,13,66.1,16.5c8.8,3.3,22.6,6.3,31.2,6.3c12.4,0,23.5,6.5,54.6,30.9c32.3,25.6,41.7,30.8,55.7,30.8
		c12.3,0,20.3,3.9,30.6,12.8c7.6,6.9,14.1,14.8,14.1,18.2c0,2.6,3.8,7.3,8.5,10.5c5.3,3.3,7,8.7,4.8,14.9c-1.7,5.6,2.2,16.8,10.7,30
		c7.3,11.7,15.1,29,17.1,39.1c2.1,12.8,0.7,23.9-4.8,34.2c-5,8.2-10.9,21.1-13.4,27.6c-3.6,10.7-7.4,12.4-22.9,12.4
		c-10.2,0.3-24.4,1.5-30.7,3.6c-7,1.7-12.3,5.4-12.3,8.4c0,2.8,4.1,8.1,9.5,11.5c4.9,3.5,14.7,7.8,21,9.1c7,1.4,27.4,3.5,45.7,4.9
		c18.6,0.7,58.8,2.4,90.1,3.2c5.5,0,49.3,316.7,54.7,316.7c-16.1,24.4-312.2-117.7-323.8-91.6c-55.5,47,142.6-147.3,121.4-146.5
		c-32,0.9-66.4,0-75.5-2.5c-11.3-2.5-37.5-2.5-80.4,0.9c-35.3,2.5-87.3,5.3-116.3,6.2c-29,0.4-56.5,3.2-59.8,5.8
		c-4.3,3-10.5,3.7-13,2.5c-2.8-1.8-13.2,0-22.9,3.2c-9.7,3.2-35.8,9-58,12.8c-21.9,3.8-61.7,6.5-88.3,6.5
		c-26.3,0.3-131.5-0.3-233.1-1.5c-101.9-1-217.7-4.1-257.4-6.8c-39.5-2.6-107.2-6-150.1-7.3c-42.7-1.2-91.6-2-108.8-1.7
		c-16.7,0.5-41.7-1.7-56.2-4.1c-13.9-2.5-69.6-4.9-123.8-5.7c-54.2-1-104.5,0.3-111.5,2.5c-9,2.5-18,2.1-30-2.1
		c-9.7-3.2-52.9-7.8-97.5-10.7c-43.9-2.5-85.9-4.5-92.6-4.8c-7.2,0-15.7,3.3-19.6,7.3c-4,4.2-10.5,6.2-15.9,4.5
		c-5-1.6-8.6-5.4-8.6-9.1c0-3.4-1.6-6.2-3.8-6.2c-2.7-0.5-16.1-1.2-30-2c-14.1-1.4-61.2-3-104.5-4.2c-43.4-1.6-100.3-3.2-127-4.5
		c-26.3-1-109.9-2.4-184.9-3.2c-78.9-0.9-146.3,0-159.1,2.5c-18.3,3.2-28.4,2.5-56.3-4.7c-22.1-5.3-47.7-8.2-73.8-8.2
		c-22.1,0-55.8,0.9-75.1,2.4c-19.5,0.6-39.8,1.5-45.6,1.5c-5.9-0.5-22.5-1.4-37.5-2.1c-14.5-0.8-53-3.3-85.2-5.6
		c-52.5-4.2-58.9-3.8-65,2.3c-5.8,6.4-9.5,6.6-30,1.6c-12.8-2.8-30.6-6.8-39.6-9.3c-8.6-2.4-23-4.6-32.2-4.6
		c-8.6,0.5-35.2-1.1-59-3.5c-23.5-2.2-58.4-5.5-77.6-8.1c-19.3-1.9-59-4.4-88.5-5.4c-29.4-1.4-74-3.5-99-4.2
		c-25.3-1.3-98.8-3-163.5-4c-65-0.9-136.2-1.9-158.2-1.2c-22,0-48.7,0.6-58.9,1.2c-10.2,0.7-22,1.1-25.2,1.5c-3.8,0.3-7,5-7,10.3
		c0,5.7,2.7,11.5,5.8,13.2c3.8,1.7,4.9,9.8,2.7,23.8c-2,11.5-6.8,24.9-11.1,29.8c-3.9,4.5-10.7,18-15.5,30.1
		c-4.3,11.8-7,26.2-5.4,32.4c1,6.4-0.6,15.3-4.2,19.8c-3.8,5-15.7,18.9-26.3,30.9c-11.4,12.3-35.9,36.2-55.2,53.2
		c-19.3,16.9-37.2,32.1-39.3,33.7c-2.7,1.6-22.4,16.1-44.5,32.6c-21.8,16-48.6,32.6-58.9,36.7c-10.5,4.1-32.1,15.2-48.2,24.6
		c-16.1,9.3-40.2,20.7-53.6,25.1c-13.5,4.7-32.6,11.7-42.9,15.9c-10.1,4-35.3,9.8-56.2,12.7c-20.5,3.3-49.4,5.9-64.3,6.6
		c-14.5,0.5-49.4,2.1-77.2,3.8c-32.8,2-56.3,5.5-67.1,10.2c-9,4-31,8.7-48.8,9.8c-17.6,1.1-41.8,2.6-53.4,2.6
		c-11.8,0.4-35-0.9-51-2.1c-16.2-1.2-36.5-4.2-45.6-6.3c-10.2-2.2-29-2.2-50.8,0c-19.3,2.1-51.5,4.3-72.4,4.3
		c-20.5,0-46.2-1.8-56.4-3.9c-10.2-2-27.4-6.1-37.5-9.1c-10.2-2.2-22.5-5.5-26.8-6.4c-6.5-1.6-6.5-2.9,2.1-7.4
		c7.5-4.5,28-5.6,77.8-5.2c43.3,0.3,72.4-1.5,79.8-4.7c6.5-2.3,11.8-6,11.8-7.7c0-1.7-3.8-6.7-8.1-10.7c-4.3-4.5-8-14-8-21.4
		c0-7-5.3-18.3-11.8-24.8c-6.4-6.7-13.8-12.7-16.1-14.4c-2.2-1.3-14-12-25.7-24.3c-11.8-12-21.6-24.2-21.6-27.4
		c0-2.8-8.4-10.2-18.6-15.8c-13-7.8-19.3-15.3-21.5-26.1c-2.2-8.7-4.2-19.3-5.9-23.8c-1-5.1-10.1-12.8-20.3-17.4
		c-10.2-4.5-22.4-14.7-27.8-22.2c-4.9-7.5-19.3-24.9-32.9-38.2c-12.8-13.6-33.6-35.1-46-47.6c-12.3-12.2-24.6-28.2-27.8-35.4
		c-2.7-7.2-19.4-24.7-35.9-39.1c-17.1-14.3-39-34.5-49.9-44.9c-10.7-10.2-29.5-26.3-41.8-36.2c-12.2-9.5-31-19.3-41.1-21.4
		c-10.2-2-25.8-4-33.9-4c-8.4,0-19.5-2-26.2-4.6c-7.6-3.5-20.3-3.5-44.5,0c-25.2,3.4-37.5,3.4-47.3,0c-9.4-3.5-18.2-3.5-28.7-0.8
		c-10.4,2.9-19.5,2.9-28.6,0c-7.4-2.6-32.6-5.8-56.1-7.7c-23.6-1.7-64.5-5-91.2-7c-26.1-2.1-53.6-5-60-6.6c-7-1.7-16.6-1.7-21.4,0
		c-5.3,1.6-21.5,3.2-35.9,4c-14.4,1-30,0-34.7-1.5c-5-2.1-28.6-4.6-52.7-6.3c-41.2-2.5-44.4-2.1-44.4,5c0,4.5,4.3,12.4,10.2,17.5
		c5.4,5.6,11.2,18.3,12.7,28.5c1.3,10.3,5.9,25.9,10.8,35.1c4.4,8.6,11.4,16.8,15,17.6c4.4,1.1,12.9,5.8,19.8,10.4
		c6.4,5,11.8,13,11.8,19.5c0,6.7,7.6,18.8,18.3,29.3c10.1,9.5,23.5,21.9,29.5,27.2c5.9,5.1,20.9,19.5,32.6,31.4
		c12.4,12.4,27.4,23.3,33.7,24.7c6.5,1.7,22.6,12.9,36.1,25.1c13.4,12.6,34.2,25.9,47.2,30.9c12.3,4.5,32.1,14.6,43.3,22.7
		c11.2,7.6,22.6,14.3,25.2,14.3c2.6,0,24.2,10,47.7,21.9c23.7,11.5,55.3,25.9,69.7,31.9c18.8,6.8,29.4,14.1,35.3,24.2
		c5,7.7,12.9,16.4,18.4,19.7c5.6,3,16,5.3,23,5.3c7.1,0,22.5,6.2,34.9,14c12.3,7.9,34.2,17,48.2,20.7c14.4,3.7,33.9,9.9,42.9,13.1
		c8.9,3.9,19.8,9.5,24.1,12.6c3.7,3.2,13.9,5.4,21.6,4.8c7.8-0.3,26.6,3,41.1,7.2c15,3.8,34.9,11.8,44.4,17.2
		c9.1,5.4,17.2,11.5,17.2,14c0,2-10.2,3.8-22.6,3.8c-12.8,0-43.3-4.7-68.5-10c-25.4-5.4-67-16.6-92.8-24.6
		c-26.2-8.5-69.6-23.5-96.5-33.8c-27.3-10.6-68.6-26.8-92.2-35.4c-23.6-9.2-47.6-19.8-53.6-23.9c-5.9-4.2-18.2-10.4-27.3-14.1
		c-9.8-3.1-33.2-14.6-52.6-25c-19.2-10.4-36.9-18.5-39.1-18.5c-1.7,0-15.6-7.1-30.6-16c-14.9-8.8-39.1-24.9-54.1-35.6
		c-14.4-11.2-47.2-33.2-71.7-50c-25.3-16.7-48.5-35.8-51.6-41.9c-3.8-6.1-20.8-25.1-38-42c-17.2-16.8-38-38.4-46.3-47.4
		c-7.8-9.1-18-23.4-22.8-32.5c-4.9-8.7-15-23.4-23.2-32.9c-7.9-9.1-16.5-19.9-19.8-23.6c-2.6-3.8-10.7-14.3-17.6-23.3
		c-6.5-9.6-17.1-19.9-24.2-23.2c-6.9-3.7-37.4-8.3-73.4-10.6c-33.7-2.6-87.8-6.3-120.5-8.5c-32.2-1.9-73.5-5.3-91-7.2
		c-17.8-2-47.9-3.3-66.5-2.6c-21.4,0.7-38.6-1.1-45.6-4.4c-6.5-2.8-30.7-7.3-54.1-9.6c-23.7-2.5-68.1-6.8-99.1-9.3
		c-31.2-3-65.5-5-76.2-4.1c-10.7,0.3-20.8-1.4-23.1-3.7c-1.6-2.2-18.2-4.1-36.4-4.1c-18.2-0.5-52.5-3-75.5-6.2
		c-23.8-3.4-49.4-4.7-58-3.4c-8.6,1.2-28.4,0.3-43.3-2c-15.6-2.4-44.6-6.5-65-9.5c-20.5-2.5-65.3-5-99.1-5.3
		c-34.3-0.5-75.5-2.9-92.1-5.8c-20.5-3.2-37.5-4.1-51.5-1.6c-14.5,2.3-26.8,2.1-41.8-2.4c-12.4-3.3-45.5-6.2-77.8-7.2
		c-31-0.3-64.8-3.1-74.9-5.6c-10.2-3-38.2-6.7-61.7-9c-23.7-2.5-68.2-6.4-99.1-8.4c-31.1-2.5-98.8-5.8-150.1-8.1
		c-51.5-2.2-104.5-4.7-117.4-4.9c-16.7-1.3-26.1,0.3-31,4.9c-4.2,3.6-14.5,14.6-23,25.1c-9.2,10.1-16.1,21.1-16.1,25.1
		c0,3.8-4.2,9.3-9.7,13c-5.3,4.2-15.4,7-22.9,7c-8.6,0-17.1-4.5-25.3-13.8c-11.2-12.7-12.1-17.2-9-41.2c3.8-26.1,3.2-26.7-8.5-29.3
		c-7-1.4-34.3-3.9-61-6c-26.4-1.8-71.4-6.3-99.3-10.1c-27.8-3.7-94.3-11.4-147.5-17.4c-53-6.2-106-11.5-117.7-12.2
		c-12-0.5-36.1-3.3-53.7-5.8c-17.6-2.5-50.5-6.2-72.4-8.4c-21.9-1.9-55.7-5.3-75-8.2c-19.3-2.5-60.1-7.3-91.2-10.7
		c-30.9-3.7-71.8-7.7-91-9.8c-19.3-1.8-62.2-5.5-95.9-8.2c-33.8-2.5-67.5-6.6-75.1-9.1c-7.6-2.7-39.2-6.8-70.1-10
		c-31.2-2.8-71.8-7.2-91.1-10c-19.3-2.5-46.7-6.2-61.7-7.7c-14.5-2.2-37.5-5.3-50.9-7.8c-13.4-2.5-39.6-6.2-58.9-8.7
		c-19.3-2-49.3-6.2-67.2-8.7c-17.6-2.8-48.6-9.9-69.6-16.1c-30-9.1-40.7-14.3-52-27.5c-8-8.6-22.9-29.2-33.2-45.4
		c-10.8-16-19.3-33.3-19.3-38.4c0-4.9,7.5-14.2,17.2-21.2c9.5-6.8,25.6-13.3,36.2-14.5c10.3-1.3,25.4-3.9,33.3-6.8
		c8.2-1.8,37.7-3.1,67.1-1.8c29,0.8,89,3.9,132.9,6.4c44.4,3,86.2,7.1,93.3,9.1c7.5,2.6,37.4,6.3,67,8.6c30,2.1,73.4,5.4,96.8,7.2
		c23.9,1.1,50.6,5.9,59.7,9.5c14.3,6.2,25.1,6.7,88.4,2.9c50.8-2.9,90.5-2.9,133.3,0.3c33.8,2.5,90.7,6.2,126.1,8.4
		c35.2,2.5,81.4,4,102.8,4.4s41.8-1.3,45.5-3.4c4.4-2.6,31.2-3.5,65.9-2.6c32.9,0.8,77.2,2.1,99.3,3c22.5,0.9,46.5,3.7,53.5,6.5
		c7.5,3.5,24.1,7.4,37.5,9.5c13.3,1.6,36.4,4.4,50.8,5.3c15.1,1.3,40.3,3,56.4,3.8c15.9,0.8,47.7,3.3,69.7,5.3
		c21.9,2.1,46,5.9,53.5,8.1c7.5,2.6,43.4,6.8,80.5,8.9l67,4.5l38.6-31c26.6-20.8,45.5-41.1,59.9-63.1c13-19.4,30.1-38.5,45.7-49.1
		c13.3-9.7,26.7-17.5,30-17.5c3.1,0,13.9-10.1,24-22.6c11.9-13.4,26.8-25.9,39.2-30.8c10.7-4.6,36.9-19.4,57.4-33
		c20.9-13.8,50.9-31.6,66.9-40.4c16.2-8.6,42.4-19.7,58.4-25.1c15.6-4.9,37-15.7,46.8-23.5c12.8-9.4,23.5-13.8,34.3-13.8
		c9,0,35.9-7.9,60.5-17.9c24.2-9.4,56.3-21.4,71.9-26.7c14.9-4.9,35.4-10.4,45.5-12c9.7-1,25.2-6.1,33.8-10.4
		c10.7-4.8,26.8-7.4,48.8-7.4c18.8,0,39.7-2.3,48.3-6.1c8.5-3.2,25.7-5.9,38.5-5.9c12.4,0,31.8-3.2,42.9-7.2
		c10.8-3.8,29.5-7.1,41.2-7.7c11.9-0.3,36-1.6,53.6-2.8c17.7-1.6,38.7-4.3,45.6-6.3c7.5-2.6,45-6.1,83.1-8.6
		c38.5-3,92.6-5.9,120.6-7.2c27.7-1.1,73.8-2.5,101.7-2.1c28,0,70.3,1.4,93.8,2.5C3934,2624.5,3984.7,2626.3,4022.9,2627.6z
		 M2397.9,3171c-8.6-1.6-18.8-4.2-23.1-6.5c-4.2-2.2-13.8-5.9-21.4-8.4c-7.5-2.3-48.2-8.1-91-12.5c-42.9-4.7-94.4-9.3-115.3-10.2
		c-20.2-1.3-42.4-3.7-48.2-5.6c-5.9-1.6-27.3-4.7-47.6-6.3c-20.5-1.1-44.7-4.9-53.8-7.7c-9.5-3.1-36.4-7.1-59.4-8.7
		c-23.7-1.5-75.1-3.8-115.2-4.6c-39.6-1-89-2.3-109.9-3.6c-20.3-0.8-67.5-3.9-104.3-5.6c-37.1-2-89.7-5.9-116.9-8.8
		c-38-3.7-53.8-4.2-63.8-0.5c-10.2,3.5-34.4,3.5-94.3,0.5c-45-2.6-96.4-5.3-114.6-6.2c-17.7-0.5-35.4-2.6-38.2-3.7
		c-3-1.6-19.8,0.4-36.9,3.9c-30,6.4-33.2,6.4-71.8-1.8c-21.3-4.6-55.2-9.5-74.5-11.1c-30.5-1.9-38.6-1.3-65.4,8.6
		c-17,5.7-31,13.3-31,16.8c0,3.3,4.2,7.1,9.6,8.4c4.9,1.2,20.3,6.4,35,12.4c13.9,5.8,32,9.9,40.1,9.5c8.1-0.9,29.1,0.4,46.6,2
		c17.7,2,38,5.7,45.7,8.6c7.4,3,28.3,6.3,47,7.5c18.8,1.6,38.7,4.9,44.5,6.9c7.6,3.4,15.5,3.4,27.8-0.5c15-4.1,20.9-3.4,36.5,2.6
		c9.7,4.3,31.7,8,47.6,8.6c16.2,0.5,45.2,2.9,65,4.9c19.2,2.3,44.5,7.5,56.2,12c11.3,4.5,31.7,9.5,45,11.2
		c13.4,1.7,35.9,4.2,50.5,5.3c14.3,0.8,32.6,3.7,40.1,6.4c7.5,2.1,28.4,5.8,46.2,7.8c17.6,2,50.2,5.2,72.3,7.7
		c21.9,2.5,62.1,8.2,88.4,12.8c26.8,4.5,71.3,9.1,99.1,10c27.8,0.9,85.7,2.8,128.7,4.1c51.4,1.6,80.2,4.6,85.7,7.7
		c4.2,3.4,30,7.1,56.2,8.7c26.9,2.1,63.8,3.7,83.1,4.6c19.3,0.8,46.2-0.9,60-3c19.9-3.5,28-3.2,40.3,2.1c7.9,3.5,20.2,6.2,26.8,6.6
		c6.5,0,16.5-4.8,22.5-10.7c6.4-6,11.4-13.1,11.4-16c0-3,7.9-10.6,17-16.8c9.8-6.2,22-16.5,26.8-23.3c5.3-6.3,9.7-14.3,9.7-17.5
		C2412.4,3176,2406,3172.2,2397.9,3171z M5266.9,2937.8c-13.5-6.9-46.7-18.8-73.6-26.7c-46.6-13.2-49.9-13.7-84.1-9.4
		c-19.8,2.3-45.6,5.3-57.4,5.9c-11.6,1.4-42.7,2.6-69.1,3c-42.4,1-48.1,2.1-52.4,9.7c-2.9,4.4-21.9,14.2-42.3,21.7
		c-20.5,7.2-37,14.6-37,16.1s2,4.6,4.1,6.8c2.4,2.5,14.6,10.9,27,18.1c12.7,8.1,35.4,25.5,49.8,39.4c14.4,13.8,33.8,30.8,42.4,37.4
		c9.1,6.9,16,14.8,16,17.6c0,2.5,24.2,23.5,53.1,46.4c29.4,22.4,55.7,41,58.9,41c3.3,0,5.9,2.8,5.9,6.2c0,3.2,5.3,7.7,12.4,10.6
		c6.3,2.6,19.8,10.4,29.4,17.4c9,7.1,17.2,14.4,17.2,15.9c0,2.2,6.2,10.5,15,18.2c7.9,8.4,20.9,17.4,29.4,20.8
		c8.1,3.1,14.3,8.6,14.3,11.6c0,3,6.6,8.3,14.2,12.5c7.4,3.8,22.3,17.9,33.8,31.4c11.3,13.5,38.5,39.2,61,56.7l40.3,32.3l77.2,2.3
		c41.7,1.4,99.6,4.7,127.5,7c27.8,2.5,55.7,6.8,61.7,9.3c5.9,2.3,37.5,5.3,69.6,5.9c32.7,0.5,70.2,3.4,83.5,5.8
		c21.1,3.8,30,2.8,60.7-4.7l35.8-8.9l30.6,10.2c28.5,9.6,36.4,10.1,109.4,9.6c49.7-0.5,81-2.2,84.5-5c4.5-3.4,4.5-8.4-1.6-18.5
		c-4.2-7.9-17.6-24.4-30-36.6c-11.8-12.3-23.5-28.5-25.1-35.9c-2.1-9.1-10.8-18-26.2-27.5c-12.2-7.9-25.9-20.7-29.6-28.1
		c-4.3-7.4-16.6-21.4-27.8-30.9c-11.4-9.8-20.5-20.2-20.5-23.9c0-3.3-14-11.5-31.6-18.6c-17.6-6.5-33.8-14.9-36.5-18.2
		c-2.1-3.2-13.3-10.7-24.7-16.4c-11.2-5.8-25.5-10.7-32.6-10.7c-9.1,0-16-4.6-24.1-14.2c-5.9-7.9-17.1-16.6-24.7-18.6
		c-7.9-2.6-23.5-4.1-34.7-4.1c-17.2,0-24.7-3-42.4-16.6c-11.7-9-25.7-16.3-31.1-16.3c-5.3,0-20.3-6.8-33.2-14.5
		c-12.8-7.8-25.7-14.5-27.9-14.5c-2.7,0-18.2-4.9-35.4-10.7c-17-5.8-37.9-13.2-46.1-16.5c-8.6-3.1-19.8-5.8-25.1-5.8
		c-6,0-18.2-5.3-27.9-11.4c-9.6-6.2-34.3-18.3-55.2-26.7c-20.4-7.7-46.6-16.7-58.4-19.7c-11.3-2.7-29-9.3-39.7-14.7
		c-10.3-5.4-21.5-9.8-25.3-9.8C5295.2,2950.8,5280.7,2944.9,5266.9,2937.8z M6244.5,3360.5c4.2,5,23,20.7,41.2,35
		c24.1,18.5,34.1,29.6,36.9,40.7c2.3,8.4,8.2,19.3,12.8,25.2c5.5,5.7,13.4,17.4,17.7,25.9c4.9,8.4,12.4,15.4,16.7,15.4
		c4.2,0,9.7-1.7,11.1-4.2c1.7-2.2,8.1-4.2,14.1-4.2c5.8,0,20.9-8.6,33.6-19.5l23.8-19.3l35.3,13.8l35.4,14l65.3-2.2
		c46.3-1.5,74.2-0.3,92.9,3.5c14.9,2.8,46.7,5.3,70,5.6c33.3,0,45.6-1.5,50.4-6.3c4.5-3.4,15.8-9.2,25.9-12.3
		c10-3.5,22.9-5.8,28.3-5.8c5.4,0,32.2,7.2,59.4,16.1c27.3,8.4,57.9,17.1,67.7,18.4c10.7,1.3,25.8,0,36.9-3.9
		c10.1-3.1,26.3-6.2,34.8-6.2c8.7,0,20.9,2.3,27.5,5c6.3,2.7,21.2,6.7,33.2,8.4c11.6,2.1,30,4.5,40.1,5.5
		c10.3,0.8,52.6,4.3,94.2,7.7c41.4,3.3,82.2,4.8,90.8,3.3c8-1.7,30.4-1.7,50.3,0c19.4,2,38.5,3.5,42.4,3.3h16.1
		c4.8,0.3,21,0.3,35.9,0.3c14.5,0,36.4,2.4,48.3,4.8c11.8,2.3,52.9,6.9,91,10.2c38.5,3.1,85.1,7.3,104.5,8.9
		c22.4,1.9,46.7,1.4,66.8-2c20-2.8,37.1-3.4,44.7-1.3c6.9,2.2,44.4,4.7,82.8,5.2c39.3,1,79.9,3.2,90.7,4.7c12.8,2.1,24,0.9,36-3.7
		c13.9-5.9,18.6-5.9,28.9-1.5c6.9,3.1,32.7,5.3,62.6,5.7c27.9,0.5,62.6,2,76.6,3.6c16.5,2.2,35.9,1.4,53.6-2
		c25.6-4.6,29.5-4.2,47.6,3.9c10.8,4.8,33.1,10.5,50.5,12.6c22.4,3,40.1,2.6,61.2-1.1c24-4.6,34.3-4.6,56.1,0
		c16.2,3.1,38.2,4.5,55.2,2.8c22.6-1.7,31.1-0.7,38.6,4.5c8.1,5.7,13.4,6.3,30.7,2.5c11.1-2.5,21.7-4.6,24-4.6c2,0,9,4.6,16,9.8
		c7.1,5.5,17.3,10.7,23,12c5.9,1.2,19.9,2.1,31.1,2.5c11.4,0,28.1-1.9,37.5-5c12.9-4,41.9-5.4,113.8-4c53,1.2,124.1,2.4,158,3.4
		c47.7,1.1,70.7-0.6,103-6.8c23.1-4.5,44.4-7.3,48.4-6.8c3.5,0.9,7.3-5.5,9.5-16.7c2.1-9.8,7-19.7,11.4-21.7c4.2-2.1,9-3.7,10.8-3.7
		c2,0,9.5,3.7,16.9,8.2c10.4,6.2,21.6,8.2,46.2,8.2c17.7,0,43.5,2,56.8,4.7c22.1,4.7,25.2,4.2,39.8-3.6c8.5-4.7,25.8-10.3,38.5-11.9
		c12.8-1.3,62.1-2.8,109.2-3.7c83.3-0.8,87-1.1,123.4-13.4c20.9-7.1,43.4-13.3,51.2-13.3c7.6,0,16.3-2,19.6-4.5
		c3.2-2.5,25-5.4,48-6.7c23.8-0.9,47.2-4.1,53.7-7.7c6.5-2.9,16.6-6,22.1-6c5.3,0,17.6-6.8,26.8-15.8c9.2-8.6,27.4-19.9,40.6-24.9
		c13.6-4.5,30.9-8.5,38.4-8.5c7.4,0,13.2-1.4,13.2-2.8c0-2.4-8.6-8.4-18.1-14.6c-10.3-6.4-21.2-11.4-23.7-11.4
		c-2.6,0-9.1-3.7-14.6-8.4c-5.2-4.5-14-8.2-18.6-8.2c-4.8,0-16.5-4.5-26.8-10.4c-10.2-5.6-21.1-10.1-24.8-10.1
		c-3.6,0-20.3-5.5-37-12.3c-16.4-6.8-33.9-12.5-38-12.5c-4.2,0-22.8-3.6-41.1-8.3c-18.3-4.8-38.1-10.2-44-12.3
		c-5.8-2-21.6-7-35-10.7c-13.4-3.2-32.6-7.8-42.8-10c-10-2-34.1-7.9-53.5-13.5c-19.3-5.4-42.3-12.7-52-16.6
		c-9.8-3.7-25.4-6.8-34.8-6.8c-9.8-0.5-48.9-8.7-87.3-19.1c-38.3-10.1-79.6-19.8-91.2-21c-11.8-1.3-23.6-3.7-26.8-5.3
		c-2.8-1.7-24.8-7.2-48.4-11.8c-23.3-5.2-50.4-11-59.3-13.4c-9.1-2.1-22.7-3.8-30.6-3.8c-7.4,0-15-1.6-16.7-3.7
		c-1.5-2.1-10.5-4.5-20.3-5.8c-9.6-1.1-33.2-4-52.4-6.6c-19.3-2.8-39.7-7.3-45.6-10.1c-5.8-3-17.7-6.4-26.8-7.5
		c-8.4-1.4-35.5-6.3-58.5-11.3c-23.5-4.5-50.9-8.6-61.7-8.6c-10.6,0-26.1-2.8-34.8-6.1c-8.2-3.5-23.5-6.1-33.1-6.1
		c-10.1,0-22.6-1.6-27.8-4.1c-4.9-2.1-24.3-7.9-42.4-12.4c-20.3-5.1-39.4-7.2-49.5-5.8c-10.6,1.5-20.9,0.3-30-4.3
		c-6.9-3.6-24.8-10.4-39.2-14.2c-13.9-4.8-50.9-12-81.4-16.6c-31.1-4.9-62.1-11.1-69.5-13.7c-7.7-2.5-28-4.9-45.5-5.3
		c-17.7-0.8-51.5-6.3-75.2-12.1c-23.6-5.6-51.5-10.6-62.2-10.6c-10.6,0-47-7.4-81.9-16.3c-34.2-9.2-68.1-16.7-74.5-16.7
		c-6.9,0-27.8-4-46.2-8.6c-27.1-7.2-37.5-8.3-51.4-4.9c-10.2,2.5-20.9,2.6-24.5,0.7c-4.5-1.8-15.1-3.6-24.2-3.6
		c-9.1,0-19.9-2.8-23.7-6.1c-3.7-3.5-10.7-6.3-16-6.3c-5.4,0-25.1-5.3-43.8-12.4c-18.1-6.6-40.9-12.3-50-12.3
		c-8.6,0.5-25.5,2.8-37.5,6.2c-11.7,3.3-26.7,6.2-33.1,6.2s-13.5-2.1-15.6-4.6c-2.1-3.1-14.1-3.8-33.8-2.5
		c-19.8,1.8-39.7,0.5-56.7-3.3c-14.1-3.3-36-6.1-49-6.1c-12.8,0-24.5-1.6-26-4.2c-1.9-2.1-12.4-4-23.7-4s-30-2.3-41.2-5.9
		c-11.9-2.6-32.8-6.9-47.8-8.9c-14.6-1.6-42.5-2.8-61.6-2.1c-19.3,0.5-61-2.1-93.8-6.1c-32.4-4.1-78.4-7.9-101.8-8.6
		c-23.8-0.8-67.6-1.2-97.6-0.8c-30.5,0-63.8-2.3-73.8-4.8c-10.3-2.3-41.3-4.8-68.7-4.8c-38.1-0.5-54.1-2-70.6-8.6
		c-18.4-7.2-31.9-8.4-98.7-8.4c-42.8,0-85.2-1.6-94.3-3.6c-8.5-2-56.8-4.7-106.7-5.9c-62.1-1.1-96.5,0-108.8,3.5
		c-14.5,4-18.6,3.6-27.4-2.2c-5.2-3.5-13.9-6.8-18.7-6.8c-4.8,0-9.1,2-9.1,4c0,2.5-3.7,4.2-8.1,4.2c-4.2,0-12.8-3.7-18.8-8.1
		c-5.8-4.4-15.4-8.3-21.9-8.3c-5.8,0-15.4,2.1-21.4,4.2c-5.3,2.3-33.7,4.3-62.1,4.3c-28.9,0.6-62.8-1.4-75.5-3.5
		c-15.7-3-34.9-3-56.4-0.5c-18.2,2.6-46.7,4.9-62.6,6.3c-16.1,1.1-38.2,2.3-48.3,3.1c-10,0.5-26.1,2.6-35.8,4.3
		c-12.3,2.1-21,1.3-30.6-3.8c-7.5-3.6-16.7-6.1-20.3-4.9c-3.8,0.8-18.3-1-32.2-4.2c-18.8-4-35.9-4.5-64.2-2.1
		c-21.5,1.8-74.1,3.1-116.9,2.1c-42.9-0.7-89.7-2.1-104.7-2.1c-14.3-0.3-77,2.1-139.2,4.8c-61.6,2.8-117.4,6.4-123.4,8.5
		c-5.8,1.7-15.4,4.5-21.2,6c-10.2,3-10.2,3.5,2.6,7.2c7.6,2.3,18.3,5.7,24.2,7.7c5.8,2.1,14.6,5.4,18.6,7.4
		c4.5,1.5,16.8,5.9,26.9,8.6c10.2,3,25.1,5.1,33.2,5.1c10.7-0.7,15,2,17,9.4c2.2,6.2,10.8,12.8,21.1,16.5
		c8.9,3.3,25.5,9.9,35.9,14.6c10.2,4.4,22.9,8.1,28.3,8.1c5.3,0,18.7,4.6,29.5,10.5c10.7,5.4,21.5,9.9,24.1,9.9
		c2.8,0,14.5,5.6,26.9,12.1c12.4,6.3,34.7,16.5,50.3,22.6c15.5,5.8,33.8,10.8,41.2,10.8c7,0,19.9,4.5,28.5,9.8
		c8.1,4.9,31.7,14.4,51.5,20.6c20.3,6.4,44.4,14.8,53.5,19.4c9.7,4.1,23.5,7.8,31.1,7.8c8.1,0,20.4,3.5,28,8.1
		c7.4,4.4,19.2,8.3,26.7,8.3c7.1,0,29.6,9.3,49.9,20.2c20.4,11.4,42.9,26.7,49.8,34c7.1,7.5,22.5,19.3,34.2,26
		c11.8,7,29.4,18.2,39.1,25.6c10.4,6.8,18.3,15.6,18.3,19.3c0,3.7,5.4,14.7,11.4,24.2c6.4,9.6,25.7,27.3,43.2,39.6
		c17.2,12.2,39.1,31.5,48.7,42.7C6228.3,3342.3,6240.2,3355.6,6244.5,3360.5z M5868.1,3822.1c18.4,14.3,33.3,29.4,33.3,32.6
		c0,3.8,3.2,7.4,7.4,8.8c4.2,1.2,16.5,13.8,27.9,27.6c11.2,14.1,26.8,30.5,34.2,36.6c7.5,6.3,14.4,11,16,11.6
		c1.8,0,7.7-3.8,12.4-8.7c5.4-4.5,12.3-12.9,15-17.7c3.4-5,10.7-11.2,17.2-13.7c6.5-2.6,19.3-7.5,29-10.5
		c10.2-3.8,25.1-16.7,38.5-32.4c12.4-14.4,22-27.8,22-31c0-2.3,9.6-13.9,21.4-25.4c11.9-11,21.5-23.5,21.5-27
		c0-3.5,10.6-15.7,24-27.3c23.2-19.7,24.2-22.2,24.2-45.4c0-19.7-2.8-28-15.6-43.6c-14.4-17.1-15.4-21.4-14-49.1
		c1.7-22.4,0-31.5-5.3-34.9c-4.3-2.8-21.4-5.3-38.6-6.1c-17.4-0.9-45.7-2.5-63.3-3.7c-17.8-0.8-48.8-3.8-69.7-6.6
		c-20.4-2.5-68.5-6.1-107.1-8.2c-38-2.1-98.6-3.8-134-4.1c-35.3-0.5-69.1-0.5-75.1-0.5c-5.9,0.5-37-0.7-68.6-2.1
		c-41.8-2.2-60-1.2-64.3,2.5c-4.9,3.6-3.7,6.2,4.3,11.5c5.9,3.7,23.7,18.9,39.6,33.8c15.6,14.6,34.3,28.7,41.3,30.8
		c6.9,2.5,19.8,12,28.9,21.8c9.1,10.1,20.4,18.9,24.7,20.2c4.2,1.2,12.8,9.5,18.2,18.3c5.8,8.5,15.6,17.6,21.4,20
		c5.2,2.7,18.1,13.3,27.2,23.8c9.8,10.8,26.3,26.1,36.5,34c10.7,8.2,23.1,19.9,27.3,26.2C5830.8,3791,5849.5,3808.2,5868.1,3822.1z
		 M5212.9,3551.9c13,11.6,25.5,25.6,27.2,31.4c2,6.2,9.6,19.3,17,29.3c7.5,10.4,23.5,26.9,36.5,37c12.8,9.9,24.5,21.4,26.2,25.6
		c1.8,4.5,10.6,10.6,20.4,14c9.6,3.7,28.3,15.2,41.8,26.3c13.9,10.7,35.4,31.9,48.2,46.6c12.8,14.9,39.7,39.1,58.9,53.9
		c26.2,20.2,37.5,32.3,44.4,48.1c5.5,11.5,15.1,27.4,22.1,34.7c7.5,7.5,18.8,23.1,26.3,34.4c7,11.4,15.6,26.9,18.7,35.4
		c3.9,8.2,15,22.4,25.3,32.1l19,16.8l35.6-2.6c24-1.6,39.6-5.2,47.1-10.7c8-5.5,18.2-7.4,32.1-6.8c12,0.3,30-1.2,41.3-4.4l21-5.3
		l-3.8-19.2c-2.1-10.4-9.6-27.3-17.2-37.3c-7.4-9.3-17.1-20.5-21.4-24.5c-4.3-3.7-17.6-18.6-29.4-33.2c-12-15-48.3-48.3-80.3-74.3
		c-32.3-26.1-70.3-56.8-83.6-68.8c-14-11.9-30.7-26.7-37.7-33c-6.3-6-27.8-26.3-46.4-44.2c-19.5-17.6-42-41-49.9-51.3
		c-8.1-10.4-26.9-28.4-41.9-39.9c-15-11.9-33.3-24.1-40.2-26.8c-6.9-2.9-32.2-5.8-55.7-6.3c-23.5-0.5-57.9-2.8-76.1-5.7
		c-18.2-2.8-37-4.2-41.2-2.8c-4.9,1.5-8.7,4.5-8.7,6.5C5188.5,3529.3,5199.2,3540.5,5212.9,3551.9z M4873,3457.7
		c15.9,1.1,31.5,2.5,34.8,2.8c3.2,0.7,10.2-2.8,15.6-7.4c8.5-7.3,8.5-8.3,0.4-10.8c-4.8-1.1-16-1.5-24.6,0c-9.1,1.4-22,0-29.6-2.3
		c-10.1-3.5-15-3.5-21.3,0.7c-4.9,3-7.7,7.5-6.5,10C4842.9,3453.1,4856.9,3456.3,4873,3457.7z M4738.3,3438.8
		c3.8,3.1,12.9,6,20.9,6.5c7.5,0,18.9,1.6,24.7,3.7c5.9,2,14.5,3.7,19.3,3.7c4.8,0.4,11.9-2.4,16-6.2c5.4-5.3,5.4-7.2-1-9.9
		c-4.3-2.1-18.7-5.9-32.7-8.2c-17.1-2.3-29.9-2.3-39.6,0C4734.1,3432.1,4733,3433.8,4738.3,3438.8z M4348.2,3421.5
		c6.5,6.3,18.2,7.3,117,7.8c81.9,0.3,113.5,1.9,124.8,6.3c9.2,3.5,19.9,4.5,26.9,2.8c6.5-2.2,14.5-2.6,17.2-1.7
		c3.1,0.5,15,2.5,26.8,4.2c11.7,2,27.3,3,34.7,2.5c8.2,0,14-3.2,15.2-7.6c1.5-5.6-1.6-7.3-14-7.3c-8.6,0-18.9-2.3-22.1-5.8
		c-3-3.2-13.8-6.5-23.6-7.7c-9.5-1.3-35.3-4.7-57.3-7.2c-21.9-2.3-50.4-4.9-62-5.3c-13-0.3-26.9-4-32.8-7.8c-6-4.2-21.9-9.9-36.5-13
		c-14-3.5-44.4-7.5-66.8-9.2c-38.2-2.6-41.8-2-44.5,4.9c-1.6,4.6-5.1,14.4-6.5,22.4C4342.3,3408.6,4343.9,3417.1,4348.2,3421.5z
		 M2519.6,3181c0,2.8-13.4,15.5-29.5,28.7c-26.1,21-29.4,26-29.4,40.9c0,9.4,1.7,17,3.3,17c2,0,12.8-1.8,24.7-4.6
		c18.1-4.2,23.5-3.7,37.9,2.8c10.2,4.7,30.6,8.1,52.1,9.4c19.3,0.9,47.1,1.8,61.6,2.1c14.9,0.5,30,2.5,33.7,4.2
		c3.8,2.1,18.9,2.4,33.2,0.8c16.1-1.7,30-0.8,37.7,2.1c6.2,2.9,40.1,6.6,74.4,9.1c34.3,2,73.9,3.6,89,3.1c14.4,0,42.4,3.4,61.6,7.9
		c19.3,4.5,52.1,9.8,72.3,12c25.1,3,46,3,64.5,0c15-2.1,35.2-4.2,45.5-3.8c10.1,0,30.5,1,44.5,1.3c13.9,0.9,27.8,3.5,30,6.5
		c2.5,3.9,9.1,4.7,18.2,3c10.6-2.1,18.3-0.5,30.4,7.3c8.8,5.9,23.8,12.4,33.3,14.9c9.7,2.4,56.2,5,103.4,6.2
		c47.2,1.2,96.4,4.1,110.1,6.6c13.3,2.8,31.6,6.2,40,8.2c9.1,2,33.3,3.8,53.8,3.8c20.8,0.4,45.5,1.5,55.1,2.8
		c13.4,2.1,22.6,0,38.6-8.2c11.9-5.7,22.5-10.7,23.7-10.7c1.5,0,6.9,3.4,12.3,7.8c5.3,4,17.1,8.7,25.6,10.4
		c9.1,1.7,30.6,4.5,48.2,5.7c17.7,1.6,35.5,4.6,39.2,6.3c3.8,2,18.2,4.1,32.6,4.8c14.5,0.8,34.5,4.6,44.1,8.8
		c13.3,5.2,25.1,6.1,51.4,4.1c24.1-2.2,38-1.4,48.1,2.8c10.2,4.1,28,5.3,55.4,4.1c22-0.7,45-1.6,50.3-1.6c5.4,0,12.2,1.6,14.5,3.2
		c2.6,2,16,3.2,30,2.9c23.5-0.5,26.1-1.6,34.8-14.4c6.4-9.5,8.5-18.9,6.4-29.3c-3.3-13-6.4-15.9-25.1-21.8
		c-11.8-3.7-33.7-7.4-48.6-8.2c-15.2-0.7-52.8-3.2-83.8-5.7c-31.1-2.4-81.5-7.4-112.5-10.7c-31.2-3.9-70.8-7-89-7.8
		c-17.7-0.8-40.8-5.2-51-9.2c-12.9-5-36.4-8.1-80.3-10.2c-33.9-1.3-67.7-5-75-8.2c-7.1-2.9-33.3-7.7-58.6-10.7
		c-25.2-3.4-59.4-6.8-76.1-9c-17.2-1.7-35.4-6.2-41.3-10.2c-9.6-6.5-13.3-7.2-26.7-2.6c-10.2,3.4-26.2,3.9-47.2,2
		c-17.1-1.6-39.7-5.7-49.9-8.4c-10.2-3-63.2-8.3-117.8-12.1c-54.8-3.2-117.6-8.2-139.5-10.6c-21.8-2.5-64.3-5-93.1-5.9
		c-39.1-1.1-58.4-4-73.5-9.8c-13.9-5.8-41.3-9.6-94.4-13.2c-40.6-2.8-92-5.5-114.7-5.9c-21.8-0.3-43.8-2-47.7-4
		c-4.2-2.2-15-4.2-23.6-4.5c-9-0.7-43.9-2.5-76.7-4.2C2534.6,3176.9,2519.6,3177.2,2519.6,3181z M3777.4,2671.1
		c-33.2,3.5-42.3,3.1-59.3-2.1c-14.6-4.6-23.1-5.4-30-2.5c-5.9,2.5-24.2,4.1-41.5,3.8c-17-0.5-44.5,0.3-60.5,1.5
		c-16.1,1.3-50.9,4.1-77.9,6.3c-26.1,2.4-56.7,5.3-66.8,6.9c-10.2,1.3-28.4,4.5-40.2,7.2c-11.8,2.4-38.2,8.3-58,13.8
		c-20.3,5.4-41.2,10-46.7,10c-5.4,0-21.9,4.9-35.9,10.8c-22.5,9.1-30,10.3-56.3,7.7c-25.7-2.1-35.3-0.7-59,7.5
		c-15.4,5.7-59.3,18.1-98,27.5c-37.9,9.9-79.3,22.7-90.6,28.6c-11.7,5.5-34.2,17.2-50.9,25.4c-16.5,7.7-44.5,22.7-61,32.9
		c-17.2,9.9-39,22.2-48.2,27.5c-9.8,5.4-32.7,19.8-51.9,32.8c-19.4,12.7-40.3,29.1-46.9,36.6c-6.9,7.4-12.4,15.2-12.4,17.1
		c0,2.3-6.2,8-13.8,13.5c-7.4,5.4-17.5,15.8-22.1,22.6c-4.6,6.9-15.3,18.8-24,27.2c-8.6,8.1-22.5,29.1-31.1,46.4l-15.1,31.8
		l11.4,3.3c6.3,2.1,43.5,5.8,81.5,8.8c38.5,2.9,76.7,7.8,85.2,10.8c11.7,5,19.8,5.7,37.5,1.7c14.9-2.9,28.4-2.9,43.3,0
		c11.9,2.6,44.6,6.4,72.4,8.3c28,2.5,71.2,5.3,96.5,7.2c26.2,1.5,53,6,62.6,10.3c10.7,4,28.9,7,47.8,7c26.1,0,33.2,1.7,45.5,10.8
		c14.4,10.7,15.5,10.7,43.4,5.3c15.4-2.8,31-4.5,33.6-3.8c3.3,1,19.4,1,36.5,0.3c17.2-0.3,44,2.2,60,5.9c16.3,3.2,34.9,5.3,41.9,4
		c6.9-1.5,21.9,0.5,33.1,3.7c11.2,3.8,33.3,6.5,48.8,6.5c16.6,0,38,3.4,51.4,7.9c13,4.5,40.2,10.7,60.7,14.2
		c20.9,3.6,57.9,7.2,83,8.6c25.1,1.4,56.2,5.4,69.2,8.5c12.7,3.7,32.2,6.2,42.8,6c10.7-0.9,24.8,1.2,31.8,4
		c6.3,3.1,16.1,4.6,21.3,4.1c4.9-0.4,23.6,0.5,41.3,2.5c17.6,2.1,54.1,3.8,80.2,4.7c26.9,0.4,61.8,2.8,77.8,5.5
		c16,2.9,45,6.2,64.2,8.5c19.2,1.7,46.2,6.2,60,9.5c13.5,3.7,47.1,7.3,74.5,8.7c37.5,1.7,53.7,4.2,63.6,9.8
		c11.4,6.5,25.9,8.2,76.2,10c44,1.2,65.9,3.5,75,8.1c7,4,23.6,7.6,36.5,8.7c13.4,1.9,41.3,4.2,61.7,6.3c21,2.3,56.3,7,79.4,10.5
		c22.8,4.2,46.7,5.9,52.5,4.6c5.9-1.6,16,0,22.5,3.4c8.6,4,23.5,5.2,53.1,4.4c31-1.2,42.1,0,47,4.6c3.9,3.4,10.2,6.2,14,6.2
		c4.2,0,7.4-2.2,7.4-4.2c0-2.5-3.2-7.3-6.3-10.7c-3.8-3.7-13.8-12.2-23-19.9c-8.6-7.2-23.1-22.4-32.1-33.3
		c-8.8-10.7-20.3-25.5-25.3-32.2c-5.4-7.2-15.1-16.5-22.4-21.2c-7.1-4.6-14.6-12.8-16.7-18.6c-2.2-5.7-11.8-15.1-22.1-21.8
		c-9.7-6.2-20.2-17.7-23.5-25.6c-3.3-7.7-12.9-19.5-20.2-25.9c-8.2-6.5-19.4-16.7-25.3-23c-5.9-6.2-20.3-18.4-32.1-27.6
		c-11.8-8.6-24.2-16.1-27.3-16.1c-3.3,0-9.7-4.1-14.6-9.1l-8-9.4l-18.8,15.6c-10.2,8.3-21.5,15.2-24.5,15.2c-3.8,0-10.3,7.1-15,15.6
		c-4.4,8.3-11.4,18.2-15.2,21.8c-3.8,3.3-9.5,13.5-13.4,22.3c-3.8,9.1-9.1,19-12.3,22c-2.6,2.8-9.1,10.3-13.9,16.8
		c-4.8,6.6-15,19.4-23.6,28.9c-9.6,11.6-18.2,16.8-26.8,16.8c-6.5,0-17.7-3.7-24.6-7.9c-11.8-6.9-12.9-9.5-10.2-36.6l2.6-28.9
		l38.7-30.1c20.9-16.8,43.9-37.7,51.3-47.1c7.1-9.3,14.5-21.6,16.1-27.7c2.2-5.7,11.9-15.6,21.5-21.3c10.1-5.9,19.7-14,21.3-18.6
		c2.3-5.8-1-12.2-10.2-21c-9.6-8.6-13.8-17.4-13.8-27.9c0-11.6,4.2-19.1,18.2-30.6c11.2-9.5,23-15.1,31.1-15.1
		c6.9,0,25.7,5,41.3,10.7l28.2,11.1l46.2-9.5c25.7-5.3,51.5-12,57.4-14.7c5.8-3.6,16.5-6,24.7-6c7.9,0,19.7,3.4,26.2,7.5
		c10.8,6.4,11.2,8.7,5.8,24.4c-3.7,10.6-11.7,20.1-20.8,25c-8,4.4-23.5,10.4-34.3,12.7c-11.4,3-25.3,10-31,15.8
		c-6,5.9-11,15.3-11,20.8c0,5.3,5.5,16.5,11.3,24.4c6.5,7.8,17.3,19,24.2,24c7,5.1,13,12.3,13,15.6c0,3.1,11.1,14,25.6,23.9
		c14,9.4,32.8,27.6,41.3,40.3c10.2,14,27.4,29.3,46.7,41.2c17.2,10.2,49.3,34.5,71.2,53.9c21.9,19.5,52.5,44.5,67.5,56.4
		c14.6,11.7,35.4,24.9,46.6,28.9c11.8,4.5,24.8,14.5,33.2,26c8.1,10.3,19.9,21.1,27.4,23.9c7.9,3.4,21.9,4.2,36.9,2.9
		c13.3-1.2,32.7-2.5,42.9-2c10.1,0,40.1,0.2,65.8,1.2c26.4,0.5,48.9-0.5,49.9-2.2c1.6-1.6,0-7.4-3.7-12.3
		c-3.4-5.4-11.9-14.1-18.8-19.8c-6.9-5.6-33.2-26.7-58.4-47.2c-25.1-20.2-45.5-38.4-45.5-40.1c0-1.6-13-13-28-25.5
		c-15.4-12.4-38-30.7-49.7-41.7c-11.8-10.2-43.9-36.3-70.9-58c-27.4-21.8-49.7-42.9-49.7-46.7c0-4.1-6.4-13.8-14.5-22.7
		c-8.6-8.1-23.1-21.9-33.3-30.3c-9.6-8.1-21.9-21.7-27.3-29.5c-5.3-8.1-19.8-21.7-31.6-30.1c-12.3-8.3-21.9-18.6-21.9-23.1
		c0-4.3,4.2-10.4,9.6-13.7c5-3.3,13.9-7.4,19.4-9.1c9.5-2.6,9.1-3.6-6.5-16c-11.7-9.2-17-17.8-17-26.2c0-7.7,4.8-15.5,12.2-20.9
		c6.5-4.6,20.9-10.8,31.6-13.2c15.1-3.7,22.7-3.7,31.2-0.5c7,2.9,21.5,3.9,36.5,2.1c17-1.6,31.4-0.5,44.9,3.8
		c17,5.8,19.8,5.8,25.6,0.3c3.8-3.4,14.5-7.7,23.6-9.5c13.9-2.7,16.6-5.2,15.5-15.2c-0.5-6.1-1.6-12-2.7-12.3c-1-1-11.8,0.2-24,3.2
		c-20.4,4-23,3.5-38-6.3c-13.5-8.2-24.7-11-58-13.5c-22.5-1.6-49.9-6.1-60.6-10.2c-10.8-4.1-28.5-9.2-39.7-10.4
		c-10.6-1.8-21.5-4.5-23-6.8c-1.6-1.8-10.6-3.6-20.3-3.6c-9.6,0-30.5-2.9-46.7-6.6c-16-3.8-31-8.2-33.8-10.2
		c-3-2.2-13.3-3.8-22.9-3.8c-9.1,0-31-2.8-48.2-6.6c-17.2-3.6-41.7-8.3-55.2-10.7c-13.3-2.1-42.2-4.4-64.4-5.4
		c-33.2-1.2-49.8-4.4-93.7-19.3c-29.6-9.8-72.9-21.4-96.5-25.4c-23.6-4.4-47.1-9.2-52.6-11.7c-6.5-2.5-25.2-2.1-52,1
		c-36.5,4.4-48.2,4.1-79.8-2.3c-26.3-4.9-40.3-5.8-47.2-3c-6.9,3-21.4,2.5-47.2-2c-20.8-3.3-41.8-7.7-46.7-9.7
		c-5.2-2.1-35.9-3.8-68-3.8C3843.4,2666.5,3799.5,2668.5,3777.4,2671.1z"/>
	<path d="M8549.4,4707.3c6.8-3.4,15.8-14.8,19.8-25c4.1-9.7,12.6-22.8,18.9-27.7c6.2-5.6,12.9-16.4,14.6-23.3
		c1.8-6.8,9.8-15.8,17.6-19.2c8-3.9,21.5-6.8,29.5-6.8c7.9,0,26,3.9,40.8,8.4c14.1,4.4,59.4,18.9,100.8,31.2
		c40.7,12.5,83.1,22.7,94.4,22.7c15.3,0,22.6,3.4,32.4,16.3c6.1,9.2,18.7,20,27,23.8c8.2,4.7,29.1,17.5,46.5,28.8
		c17.5,11.9,33.4,21.6,35.7,21.6c1.8,0,14.2,7.9,27.2,17c12.4,9.5,26.6,17,30.5,17c4,0,14.8,6.7,24.5,14.6
		c9.5,7.9,26.5,17.1,37.4,19.9c10.6,3.4,27.6,13.1,37.2,22.6c10.8,10.8,22.7,16.4,33.6,16.4c11.8,0,22.1,6.3,37.9,23.2
		c11.9,13,30.4,27.4,41.8,31.7c11.4,4,25.4,14.8,31.8,23.3c6.1,8.5,28.3,24.4,49.2,34.5c20.2,10.9,40.2,22.7,43.6,27.1
		c3.4,4.1,12.3,7.3,19.7,7.3c8.1,0,22.3,9.7,37,25.5c12.9,14.3,27.1,25.5,30.5,25.5c4,0,13.6,5.2,22,12c8.6,6.8,27.2,18.1,42,25.4
		c14.7,7.3,29.4,13.5,33.3,13.5c3.5,0,13.5,6.4,22.6,13.7c8.5,7.5,25.5,16.5,37.3,20.4c12,3.4,23.2,5.7,24.5,4
		c1.7-1.7-7.9-13.7-21.4-26.5c-13.2-13.7-30.7-27.4-38.5-30.6c-8.6-3.4-23.5-12.6-33.6-20.4c-10-8.1-37.9-32.4-62.2-55
		c-23.8-22.6-47.1-44-52.2-48.1c-4.9-3.9-14.5-15.2-21.3-25.5c-7-9.6-17.3-19.7-23.5-21.4c-5.9-2.3-11-7.4-11-11.9
		c0-4.5-9.7-18.2-21-30.6c-12.1-11.8-27.2-28.9-34.2-36.7c-7.2-8-13-18.1-13-22.6c0-5.1,5.8-8.6,13-8.6c6.9,0,22.1-9.7,34.5-21
		c15.5-14.1,23.9-28.3,29.6-49.2c5-18.7,13.6-34.4,24.8-44.1c12.1-11.4,23.4-15.8,37.5-15.8c14,0,23.8,3.8,33.3,14.7
		c8,8.4,14.2,18.6,14.2,22.1c0,3.8,16.5,23.7,36.2,44.1c19.8,20.3,41.3,38.5,47,40.2c5.7,2.3,17.6,15.2,26,28.9
		c9.1,14.2,18.5,25.4,21.1,25.4c2.7,0,25.9,19.1,52,43.5c26,23.7,60.1,55.4,75.3,70.2c15.8,14.8,44.7,43.6,65,64.5
		c23.9,25,47.7,43.6,67.5,52.8c20.3,9.6,43.5,27.7,70.9,56c21.8,23.3,47.9,46.4,57,50.9c9.6,5.1,29,18.6,43.1,30.6
		c14.7,12.4,28.1,22.1,31.1,22.1c2.3,0,14.6,6.8,27.2,15.4c13,8.4,36.1,27,52,41.2c15.7,14.2,36.7,32.2,47.1,41.4
		c10.2,8.4,22,15.2,26,15.2c4.3,0,19.8,9.1,34.6,20.4c14.4,11.3,35.6,24.4,46.3,28.8c10.9,4.6,33.4,18.3,49.8,30.7
		c16.5,12.4,46.5,28.9,66.8,35.6c33.9,11.8,40.8,12.4,82.7,6.7c24.9-2.8,45.3-7.9,45.3-10.7c0-2.8-18.6-25.5-40.9-50.9
		c-22.5-24.9-50.2-54.3-61-64.6c-10.9-10.8-35.6-28.3-55.4-39.5c-23.4-13.1-43.7-30.1-56.7-47.7c-11.4-15.1-22.6-27.6-24.9-27.6
		c-2.4,0-13.1-6.3-24.4-13.7c-10.7-7.9-24.3-18.6-30-24.9c-5.3-5.7-21-15.2-35.2-20.9c-14.1-6.2-35-18.6-46.3-28.3
		c-11.8-10.2-31-22.6-42.4-28.3c-12-5.7-26.1-12.4-31-14.8c-5.9-2.8-14.9-5.1-20.7-5.1c-5,0-14.7-3.4-21-7.3
		c-6.1-4-22.5-10.7-36.1-14.8c-14.1-4-33.4-8.5-42.4-9.6c-9.5-1.1-26-4-36.4-5.6c-10-2.4-22.1-9.2-26.4-15.4
		c-4.5-6.7-8.4-17.6-8.4-23.9c0-6.8,3.2-16.9,7.8-23.1c6.9-9.2,18-11.4,66.8-14.7c31.7-1.8,66.2-5.1,75.9-7.6
		c10.8-2.1,27.6-0.4,44,5.4c24.9,8.4,28.4,8.4,45.9,0c15.3-6.9,20.3-13.7,23.2-28.9c2.1-12.6,0-30-5.6-48.1
		c-5.1-15.8-9.1-31.6-9.1-35.2c0-3.4-4.6-13-9.6-20.3c-5.6-7.9-22.1-39.1-36.8-69.7c-14.2-30.5-30-60-34.5-65.1
		c-4.5-5.6-9.7-17-11.9-25.9c-2.3-9.2-10.1-24.4-18-34.7c-7.3-9.4-13.8-22.1-13.8-27.2c0-4.9-10-30-22.5-55.4
		c-12.4-25.5-25-49.3-27.8-52.7c-2.8-3.4-6.8-12.4-9-20.3c-2.4-7.9-8.6-24.4-14.3-36.8c-5.5-12.4-15.9-35.2-22.5-51
		c-6.8-15.1-15.4-35.5-19.2-45.2c-4.5-9.2-14.1-34.7-21.7-56.7c-7.7-21.4-18.5-57.2-24.1-79.3c-5.8-21.4-13.7-57.1-17.5-79.1
		c-4.1-21.7-7.9-75.3-8.6-119.4c-0.7-56.1,1.7-88.5,7.8-110.5c5.2-16.9,11.4-42.9,14.2-58.9c2.9-15.2,11-40.7,17-56.5
		c4.1-10.1,8.4-22.5,12.5-34.2c41,23.4,84,45.5,132,63.5c58.6,22.2,119,42.2,179.3,62.1c0,0.2,0,0.2,0,0.2
		c-9.6,36.8-22.8,78.2-28.3,92.3c-6.2,14.1-12.9,38.5-16.4,53.9c-3,15.8-11.4,56.5-18.8,90.4c-7.7,37.3-12.3,77-11.4,99
		c0.7,20.5,5.3,56.1,9.7,79.2c4.5,23.3,12.4,56.7,17.5,73.7c5.2,17,10.9,55.6,13.1,85c3.5,38.9,9.1,64,20.3,90.5
		c8.6,20.4,19.8,45.8,25.4,56.6c5.8,10.9,15.9,39.1,22.9,62.3c6.5,23.3,13.3,50.5,15.2,59.5c1.6,9.6,7.8,22.1,13.5,28.9
		c5.5,6.1,18.1,26.5,27.9,44.7c9,18,16.9,36.2,16.9,40.1c0,4,6.2,13.6,14.2,21.1c14,12.4,14.7,15.3,10.7,51.4
		c-4,37.9-4.5,38.5-42.6,77.5c-21.6,22.1-38.9,41.9-38.9,44.7c0,2.9,6.8,9.7,14.7,15.3c14.1,9.1,15.2,9.1,25-4
		c9-11.9,11.8-12.9,24.1-7.2c9.7,4.4,15.3,12.4,16.5,22.6c1.1,11.2,6.8,18.6,20.4,25.4c10.6,5,22,12.9,25.4,18
		c3.8,5.2,16.9,14.1,29.3,21c12.5,6.6,30.5,15.8,39.7,20.3c9.5,4,24.9,11.8,34,16.9c9.6,5.2,29.5,15.5,44.7,23.8
		c15.2,8,49.9,33.5,76.4,57.2c26.7,23.3,59.6,50.5,73,60.5c13.5,9.7,31.1,26,39.1,36.8c7.2,10.2,21.6,32.9,30.5,49.8
		c9.2,17,26.8,47.6,39.1,67.9c12.5,20.4,22.8,42.5,22.8,49.2c0,6.8-11.5,25.5-25.7,41.9c-17.5,20.9-32.8,32.3-47.5,36.8
		c-13.6,3.9-25.3,4.5-31,1.1c-5.2-2.8-11.5-3.4-14.8-1.7c-2.8,1.7-18.8-0.5-35.1-5c-16.5-4.6-47-9.7-68-11.3
		c-20.3-2.3-46.3-7.4-56.6-12c-11.8-4.5-21.9-5.6-27-2.8c-6.2,4-1.3,7.9,19.7,17c16.1,6.8,49.9,22.6,76.5,35
		c26.5,12.5,53.7,26.2,60,29.4c6.8,3.4,23.2,13.5,36.7,22.7c13.7,9.1,43.1,31.7,65.7,50.9c22.3,19.2,49.9,40.7,61.3,48.6
		c11.2,7.9,36,25.5,54.8,39.7c18.5,14.1,52.5,41.3,75.2,60.6c22.8,19.2,56.1,42.3,74.2,51.5c18.8,9.5,44.1,28.4,57.2,42.5
		c13,13.5,45.4,39.6,71.8,57.2c27.3,17.6,51.7,31.6,54.4,31.6c3.5,0,12.4,7.9,21.1,17.5c8.9,9.7,24.9,22.1,36.7,28.3
		c11.5,5.8,25.4,17,31.8,24.4c7.2,9.6,14.7,13,22.1,11.3c7.9-2.3,15.7,2.3,27.7,16.4c9.1,10.8,24.3,23.8,33.5,29.4
		c9.5,5.7,25,17.6,34,26.1c9.5,9.1,27,19.9,39.4,24.9c12.6,5.1,34.2,19.3,48.2,30.6c14.2,11.8,32.3,26,40.8,31.1
		c8.5,5.7,17,14.7,18.6,20.4c1.8,5.7,13,13.6,24.6,17.5c11.2,4,24.7,12.4,30.5,19.2c5.6,7.5,19.7,17,31.1,21.5
		c11.8,4.6,34.9,19.2,52.1,31.7c17,13,34.5,23.2,38.4,23.2c3.9,0,28.4,19.3,53.8,43c31.1,28.9,53.1,54.3,65.7,77.6
		c17.9,33.4,18.7,37.4,15.2,74.7c-2.1,21.5-7.3,45.9-11.9,54.3c-3.9,8.5-13.5,17.5-20.2,19.3c-7.6,2.3-24.4,9.5-38.5,16.5
		c-20.6,9.6-36.8,11.8-82.2,12.4c-31.2,0-61.7-0.6-67.8-2.3c-6.3-1.2-15.4-5.7-20-9.7c-4.4-3.9-17.5-11.2-28.2-16.4
		c-10.8-4.5-40.8-15.3-66.8-22.6c-25.5-8-54.4-19.3-62.9-26.1c-9-6.2-20.5-11.3-24.9-11.3c-5.1,0-10.1-2.3-12-5.1
		c-1.5-2.8-11.9-6.8-22-8.6c-10-1.7-31.7-11.3-46.9-21.4c-15.2-9.6-39.2-24.4-53.3-31.6c-14.1-8-32.8-18.3-42.4-22.8
		c-9-4.4-31-21.6-48.8-37.4c-17.4-15.9-46.3-38.9-63.7-51.4c-17.6-12.6-40.3-29.6-49.3-38.6c-9.1-8.5-29.5-21.5-44.7-29.4
		c-15.4-7.4-28.9-16.4-31.1-19.8c-2.3-3.4-21.6-14.7-43.1-25.5c-21.4-11.3-39.1-22.6-39.1-25.4c0-3.5-4-10.3-8.5-15.3
		c-4.5-5.8-17.4-21-28.9-33.9c-11.1-13.8-29.4-30-40.6-36.9c-11.9-6.8-49.2-40.8-83.9-75.3c-34.6-35.1-85.5-82-112.5-105.3
		c-27.1-23.2-57.2-47.6-67-54.3c-9.4-7.4-22.5-18.1-29.2-24.4c-6.2-6.2-26.6-23.7-44.8-39.6c-18.6-15.8-40.1-37.5-47.5-47.6
		c-7.3-10.2-19.9-22.1-28.4-26.6c-8.4-4-24.4-16.9-35.1-28.3c-10.7-11.4-39.5-34.5-63.4-52.1c-24.4-18.1-46.4-32.4-49.1-32.4
		c-3,0-24.5-20.3-47.1-45.2c-22.6-24.9-50.4-51.6-61.2-58.9c-10.9-7.4-48.1-40.8-82.1-74.2c-34.4-33.4-68.7-64.4-76.5-69.5
		c-8-5.2-26.4-22.7-41.2-39.1c-15.1-16.3-40.2-38-55.5-47.6c-15.4-10-31.2-23.7-35.5-31c-4.8-6.8-25.1-20.4-44.7-30
		c-20.7-9.5-40.4-16.4-44.9-14.7c-5.2,2.3-10.2,0-11.9-3.9c-1.7-4.6-23.2-19.8-48.7-34.6c-24.9-14.7-47-26.6-49.2-26.6
		c-1.7,0-10.9-5.6-20.3-12c-9.1-6.6-37.4-19.7-62.3-28.2c-25-9-52.2-16.3-60-16.3c-7.4,0-30-10.2-49.9-22.7
		c-19.7-12.4-39.6-22.7-44.5-22.7c-5.2,0-26.8-9-48.8-19.9c-22.1-10.7-46.9-24.9-56-31c-8.5-6.3-19.9-11.4-24.4-11.4
		c-5.1,0-11-2.8-12.5-5.7c-2.1-3.2-13.2-12.4-24.4-19.7c-11.9-7.9-26.5-18.2-33.3-23.1c-7-4.7-29.5-14.8-50.9-22.1
		c-21.2-8.1-43.2-14.3-48.3-14.3c-5,0-20.8-10.1-35-22.1c-14.2-12.4-31.2-23.8-37.5-26.2c-6.1-1.6-11.1-6.2-11.1-8.9
		s-8.5-10.1-18.3-16.5c-10-6.2-24.4-11.1-31.5-11.1c-7.4,0-21.7-6.2-31.7-14.2c-10.1-7.8-23.9-14-30.7-14c-6.2,0-13-2.3-14.7-5.1
		c-1.8-2.9-22.1-14.8-44.1-26.1c-22.5-11.9-53.8-23.7-69.1-25.9c-15.2-2.9-31.6-8.5-37.3-13.6c-5.1-4.5-15.8-8.5-24.4-8.5
		c-7.7,0-16.3,2.9-17.9,5.7c-1.7,3.4-8.6,5.6-14.7,5.6c-5.8,0-10.8,4.1-10.8,8.6c0,4.5,11.4,15.9,25.5,25.5
		c14.2,9.6,25.4,21.4,25.4,26c0,4.6,5.7,10.8,12.9,13.6c6.9,2.8,20.6,13.7,29.5,23.7c9.7,10.1,26.6,32.8,38.6,50.4
		c11.1,17.1,46.4,57.8,77.4,89.4c31.3,31.7,56.6,60.2,56.6,62.4c0,2.1-5,8.9-10.7,14.1c-5.6,5.7-15.2,9.1-20.3,7.9
		c-5.5-1.1-11.4,1.7-12.4,5.6c-1.7,4.7,4.5,6.8,19.8,6.8c12.9,0,25.5-3.4,29.4-8.3c4.1-4.7,12.5-8.5,19.3-8.5
		c6.8,0,18.5,6.8,26.5,15.8c8,8.6,22.1,21.6,31,29.4c9.2,7.4,27.8,22.6,42.2,33.6c14,10.7,34.3,27,45.8,36.6
		c10.6,9.6,26,21.6,32.8,26.1c7.2,4.5,31,23.3,53.8,40.7c22,17.7,49.2,40.9,60,52.2c10.8,10.7,29.5,26,41.3,33.8
		c11.9,8.1,28.7,18.8,38.4,23.3c9.6,5,35.2,27.8,56.7,49.8c26.6,27.7,50.3,46.4,74.8,57.7c25.4,12.5,35.5,21,36.5,30
		c1.3,7.9,10.4,17,24.6,24.3c13.6,6.9,27.1,9.7,34,8c7.9-2.8,14.1-0.6,19.7,7.3c5.2,7.4,17.7,12.4,36.7,15.3
		c28.5,3.9,29.7,3.4,51-19.3c18.7-19.2,25-22.6,38.5-19.8c10.8,2.2,21.6,0,31.8-6.8c14.8-9.7,15.8-9.7,22.6-0.6
		c4,5.1,10.9,9.6,15.9,9.6c5.2,0,10.3,2.3,11.9,5.2c2,2.2,24.5,16.4,50.5,31.1c28.3,15.8,51,32.9,56.6,42.5
		c5.1,9.1,9.7,20.4,9.7,24.9c0,4.5-5.3,19.3-11.5,32.8c-6.1,13.6-11.1,34-11.1,44.7c-0.5,10.8-4,32.9-7.8,48.2
		c-6.5,24.3-12,32.4-40.3,53.7l-32.8,25.5l-44.1-1.1c-24.3-1.1-54.2-4-65.5-6.8c-12-2.8-44.3-14.7-72.7-26
		c-27.8-11.9-58.1-28.4-67.8-37.3c-9.2-8.6-26.2-19.9-36.8-24.4c-10.9-4.5-25.7-14.8-32.4-22.6c-7.2-7.9-17.5-14.7-23-14.7
		c-5.8,0-14.9-7.4-20.1-17c-5.5-9.1-15.2-19.8-22-23.2c-6.8-3.4-21.7-16.5-32.8-28.2c-14.2-15.4-25.7-22.1-36.3-22.1
		c-10.1,0-19.7-5.8-27.7-14.8c-6.8-8.6-19.1-22-27.1-30c-8.7-7.9-26.1-23.2-39.1-32.9c-13.1-10.1-27.2-18.6-31.1-18.6
		c-3.4,0-23.7-14.8-44.1-32.8c-20.4-18.2-48.1-36.8-61.2-40.8c-14.1-5-38-21.4-61.2-43.5c-20.3-19.3-41-35.8-46.9-35.8
		c-5.1,0-20.3-9-33.9-19.3c-12.9-10.7-32.3-25.8-41.9-34c-10.1-8.3-23.2-14.6-28.8-14.6c-6.2,0-21.6-7.5-33.4-17.1
		c-12-8.9-28.3-21.4-36.2-27.6c-8.1-5.6-28.6-19.9-45.4-31.1c-16.8-11.4-44-30.1-60.5-41.9c-16.4-12-37.4-32.4-46.4-45.4
		c-9.7-13-23.8-27.2-31.1-32.2c-8-5-16.4-17-19.7-26.1c-3-9.2-9.9-18.1-14.9-19.7c-5-2.3-12.9-11.9-17.9-21.6
		c-4.7-9.7-22.2-31.6-38-49.2c-15.9-17.6-34.6-40.2-42-51c-6.8-10.8-20.9-31.6-30.5-47.4c-9.5-15.3-22.1-35.8-28.3-44.2
		c-6.2-9.1-19.2-27.7-28.9-41.9c-10-14.1-22.5-32.3-27.7-40.8c-5.8-8-16.4-26.6-24.5-41.2c-7.8-14.9-13.9-33.6-13.9-41.5
		c0-7.9,3.1-23.2,7.7-34C8533.7,4722.6,8542.7,4710.6,8549.4,4707.3z"/>
	<path d="M10536.3,5565.5c0-1.8-2.3-4.7-5.7-6.3c-2.9-1.8-5.7-0.5-5.7,2.3c0,3.4,2.8,6.2,5.7,6.2
		C10534,5567.7,10536.3,5566.6,10536.3,5565.5z"/>
	<path d="M10474.2,5539.4c-4.6-2.9-12-5.8-15.9-5.8c-4.1,0-5.8,2.8-4.1,5.8c1.6,3.4,9.1,5.6,15.9,5.6
		C10480.4,5545,10480.7,5543.9,10474.2,5539.4z"/>
	<path d="M8640,5923.6c-10.7-5.6-23.8-10.6-28.2-10.6c-4.4,0-18.7-3.9-31.1-8.5c-12.5-3.9-32.8-13-45.9-19.2
		c-12.4-6.3-30.5-13-39.6-15.3c-9.1-2.3-23.9-10.2-32.4-17.7c-9-6.8-19.2-12.9-22.5-12.9c-4,0-25-13.6-46.4-29.4
		c-22.3-16.5-47.7-34-56.6-38.5c-9.5-4.5-26.3-14.8-36.8-22.1c-10.9-7.9-38-31.7-60.2-52.7c-22.5-21-43.3-38.5-46.8-38.5
		c-3.4,0-26-19.8-51.1-43.5c-24.2-24.3-58.7-56.6-76.4-71.9c-21.9-19.2-38.2-28.3-50.4-28.9c-9.4-0.7-18-3.4-19.3-6.2
		c-1-2.9-6.8-13.7-12.8-23.8c-6.2-10.2-15.9-20.3-21-22.1c-5.1-2.3-19.9-14.1-32.8-26.7c-12.5-12.9-41.4-38.9-63.4-58.2
		c-22.1-19.8-44.2-35.6-49.2-35.6c-4.7,0-12.1-4.5-16-10.4c-3.9-6-16.9-13.5-28.2-17.4c-11.9-4-21.7-10.3-21.7-14.2
		c0-3.9-6.7-11.9-15.2-18c-9-6.3-20.3-13.1-25.4-15.2c-5.7-1.7-10.1-5.8-10.1-8.5c0-2.8-10.8-12.5-23.7-21.6
		c-13.7-9-40.8-29-61.2-44.7c-20.3-16-48.2-34.5-62.4-41.9c-14.2-7.9-31.6-18.8-39.1-24.4c-7.3-5.6-19.1-10.3-26.7-10.3
		c-7.1,0-15.6-4.3-18.4-10.7c-4.1-7.3-10.3-9.6-20-7.9c-7.7,1.8-25.3-1.7-39.4-6.9c-14.3-5.6-30.2-14.5-35.3-20.2
		c-5-5.7-11.7-9.1-14.8-7.4c-2.6,1.7-9.4-0.6-14.6-5.1c-5.1-4.6-23.6-14.8-41.2-23.3c-17.5-7.9-38.5-14.7-46.5-14.7
		c-7.8,0-16.8-3.5-19.2-8c-2.3-4-10.1-10.2-17-14c-6.8-3.5-16.5-6.2-21.6-6.2c-4.9,0-16-4.6-24.4-10.3c-8.5-6.2-25.3-17.5-38.4-25.4
		c-12.3-8.5-27.8-15.3-34-15.3c-6.8,0-16.4-5.1-22.6-12c-5.7-6.8-23.1-18.5-37.8-27c-15.3-8-38.1-20.5-50.5-27.3
		c-13-7.3-24.9-14.6-26.5-17.5c-1.7-2.3-15.9-11.9-31.7-20.9c-15.4-9.8-39.7-21.6-53.2-26.5c-13.7-5.3-28.9-13.1-34-17.7
		c-5-4.5-17.5-12.4-27.7-17.6c-9.8-5-39-11.8-64-15.2c-38.6-4.5-48.2-3.8-59.6,3.4c-7.2,4.5-17.5,8.5-22.5,8.5
		c-6.8,0-8.5,3.9-6.3,15.9c1.2,8.4,10.9,34.5,21.2,57.7c10,23.2,20.7,47.6,24.2,53.8c3.3,6.2,14.8,27.7,24.8,47.6
		c10.8,19.7,25,44.2,31.8,53.8c6.8,9.6,15.3,21.5,18.1,26.5c3.5,5.1,13,19.3,22.6,31.2c9.1,12.4,26.8,30,38.4,39
		c12.7,9.6,28.5,23.2,35.8,31.2c7.5,7.8,22.1,25.5,31.7,38.9c12.9,18.2,29.6,30.7,55.5,43.6c21.5,10.1,47.1,29,61.2,44.2
		c13,14.1,23.8,27.6,23.8,29.9c0.5,2.9,13.5,13.6,29.4,24.4c15.8,10.8,36.3,26.6,46.3,34.5c9.6,7.9,25.4,19.3,35.7,24.4
		c10.1,5.1,27.9,19.2,39,31.7c11.9,12.4,24.4,22.5,28.9,22.5c4.6,0,14.2,6.3,22.2,14.3c7.7,7.9,30.5,24.9,49.7,36.8
		c19.8,12.4,37.9,22.6,40.8,22.6c2.9,0,14.9,5.2,27.1,11.4c11.9,6.8,43,15.8,69.8,21c36.2,6.8,49.2,7.3,54.1,2.3
		c3.5-3.4,7-14.7,7.6-24.3c0.4-10.2,5.5-21.6,11.3-25.5c5.5-3.9,20.4-7.3,32.9-7.3c13.9,0,36,6.2,55.2,15.4
		c31.8,15.2,33,16.3,45.9,55.4c7.9,21.5,18.3,53.1,23.4,70.1c5.1,16.4,9,39.7,9,51c-0.7,11.4-3.9,36.2-8.1,55.5
		c-5.5,25.4-13.5,43.1-28.1,60.6c-11.5,14.1-25.6,27.2-31.8,28.9c-5.8,1.7-21,0.5-33.4-2.9c-12.4-3.3-37.6-13-55.4-22.1
		c-18.3-9.1-44.4-19.8-58.5-23.8c-13.9-4-29.2-10.2-33.8-14.2c-4.6-3.9-17.7-13.5-28.5-21.4c-10.7-7.9-34.5-22.1-52.7-32.3
		c-18-10.2-37.1-24.3-42.8-31.2c-5.8-7.4-27.8-24.9-48.8-38.4c-20.8-14.1-40.2-24.4-43.1-22.7c-2.7,1.7-5.2-2.2-5.2-8.5
		c0-6.8-3.8-11.9-8.3-11.9c-5.1,0-19.2-6.8-32.3-15.3c-12.9-9.1-31.6-23.3-40.7-32.3c-9.6-8.5-30.6-22-46.4-28.8
		c-16-7.5-30.5-17.1-32.3-22.1c-1.7-4.6-22.1-22.7-45.4-39.6c-32.2-23.8-44.6-30.2-55.9-27.9c-10.3,1.8-18.7-1-26.5-9
		c-7-6.8-12-17.5-12-23.7c0-7.4-13.7-25.1-34.5-45.4c-19.3-18.6-36.8-33.4-39.8-33.4c-2.2,0-13.5-9.1-25.3-19.7
		c-11.4-11.3-27.8-21.6-35.7-23.3c-7.9-1.7-18.1-4.5-22.1-5.6c-5.1-1.3-6.2-6.3-4-14.3c3.4-10.1,2.4-11.2-9-7.8
		c-12.5,3.9-13,3.4-5.5-5.1c7.2-8.6,7.2-10.7,0-15.4c-4.5-2.8-11-5-14.8-5c-3.5,0-7.5,6.7-8.6,15.9c-1.1,10.1-5.1,15.8-13,17
		c-6.3,0.5-14-0.5-17.5-2.8c-3.3-2.9-8.5-13-10.8-22.7c-3.5-18.2-2.9-18.6,13.6-18.6c9.7,0,17.5-1.7,17.5-3.4
		c0-1.6-5.1-10.7-11.3-19.2c-6.3-9.2-16.4-17.6-22.2-19.8c-5.6-1.9-18-14.3-27.7-27.8c-11.9-16.5-23-25.5-34.1-27.8
		c-11-2.2-30.5-18.6-60.4-52c-24.2-26.6-46.9-48.2-51-48.2c-3.5,0-19.7-14.8-36.6-32.2c-16.5-18.1-37-35.7-46.1-39.7
		c-10.6-4.5-17.4-12.9-21.4-28.3c-3.5-11.7-6.2-28.2-6.2-36.8c0-8.4-2.8-22-6.2-30.6c-4.7-12.4-3.5-21.5,3.4-40
		c6.2-15.9,21.5-35.2,45.8-57.2c26.6-24.4,47-36.8,73.6-46.5c33.3-12,46.9-13.1,153.9-13.1l117.2-0.5l31,15.8
		c17.1,9,45.4,22.6,62.3,30.5c17,7.5,39.1,18.1,48.1,22.6c9.7,4.5,28.3,14.7,42.5,22.1c13.7,7.9,34,21,45.3,29.5
		c10.8,8.4,28.9,19.3,39.6,23.2c10.9,4.5,29.6,14.1,41.3,21.6c11.4,7.7,21,15.8,21,18c0,2.4,8.5,5.7,18.3,7.9
		c10,2.3,27.1,12.4,38.4,22.6c10.8,10.7,30.5,22.1,42.9,25.5c13,3.4,32.7,12.4,44.3,20.3c11.3,7.9,23.1,14.2,25.9,14.2
		c3,0,16.5,5.7,29.5,12.6c13.5,6.6,26.7,15.8,28.9,19.7c2.9,3.9,7.3,6.3,10.1,3.9c2.9-1.5,13,3.4,22.6,11.5
		c9.7,7.7,19.9,14.7,22.8,14.7c2.8,0,5-1.8,5-3.9c0-3-9.1-16.1-19.9-29.6c-10.6-13.5-19.7-27.2-19.7-30s-4.7-4.1-10.9-1.6
		c-8.3,2.8-11.2-0.5-14.8-18.2c-1.6-11.8-10.7-28.3-18.6-36.6c-8.3-8.6-19.2-20.5-24.1-26.1c-5.2-5.7-11-13-12.7-16.5
		c-2.1-3.5-1.1-13.5,1.2-23.2c2.8-9.6,6.7-37.4,9-61.2c1.8-23.8,5.7-47.5,8-52.6c2.9-5,10.3-13.5,16.5-19.3
		c10.7-9.5,16.3-10,64.5-4.5c28.7,3.4,74.6,6.9,101.8,8c42,1.6,51.7,4,65.7,15.8c9.2,7.4,26,19.2,38.5,26.8
		c12,7.2,37.4,22,55.9,33.3c18.8,10.8,44.4,23.8,56.7,27.7c11.9,4.5,26.3,12,31.2,15.8c4.5,4.1,17,12,27.1,17
		c10.9,5.7,30.6,18.8,44.8,29.5c13.6,10.7,27.2,19.3,30,19.3c2.3,0,17.5,9.1,34,19.8c16.5,10.8,32.8,19.8,37.4,19.8
		c3.9,0,10.1,5.8,14.2,12c5.2,9.6,9.4,11.1,25.3,9c14.8-2.4,19.3-1.2,19.3,5.1c0,4.5,12.6,20.9,28.5,36.2c15.2,15.9,30,28.3,32,28.3
		c2.4,0,11.4,5.5,19.2,13c8.7,6.9,31.1,24.9,51,40.8c19.8,15.3,46.4,35,59.5,42.9c12.9,8.6,28.7,17.1,35.6,19.3
		c6.8,1.7,21.6,13.7,32.3,25.5c11.4,12,26.1,22.7,32.4,23.8c7.3,1.2,12.9,7.5,15.1,15.8c2.5,8.6,8.6,14.8,17.1,17.1
		c8.1,1.5,15.3,8.4,16.9,15.2c1.8,6.9,14.2,20.3,28.5,30.6c14.2,10.1,32.2,24.9,40.2,32.8c7.8,7.9,24.2,20.9,36.2,28.9
		c11.9,7.9,37.4,29.6,56.1,47.6c19.2,18.6,41.3,39.1,49.8,45.3c8.6,6.8,30.8,22.7,49.2,36.2c18.7,13,36.9,23.8,40.2,23.8
		c3.4,0,8.6,6.2,11.4,14.1c4,10.8,9.5,14.2,23.7,15.3c10.2,0.6,26,0.6,35.3,0c9-1.1,30,4.1,46.8,10.2c16.5,6.2,36.9,11.3,44.1,11.3
		c7.3,0,15.2-2.2,17-5.7c1.8-2.8,5.6-5.6,9.1-5.6c2.9,0,5.1,3.3,5.1,7.4c0,3.2,8.4,11.9,18.8,18.6c9.6,6.2,48.6,19.8,86.1,29.4
		c37.2,10.3,75.6,21,84.6,24.4c9.8,3.5,26.1,9,37.5,12.4c15.9,4.5,23.8,4,38-2.8c14.7-7.4,18.8-7.9,23.8-1.7
		c3.5,4,24.5,13,46.8,19.8c28.5,8.5,49.5,11.9,69.1,9.6c17.6-1.7,34.1,0,42.6,4.6c7.8,3.9,27.8,22,44.7,39.6
		c27.7,28.9,29.4,32.7,21.4,40.7c-5.6,5.6-19.3,9.1-36.1,9.6c-14.8,0-57.2-2.8-93.3-6.2c-37-4-71.5-9.5-77.6-13
		c-6.4-2.8-23.2-5.6-37.4-5.6c-14.2,0-31.7-2.9-38.1-6.3c-6.8-3.4-22.5-7.5-35.5-7.9c-13.2-1.2-38-3.4-54.9-5.7
		c-24.3-2.8-32.4-2.2-38.1,5.1c-5.5,6.8-13,8.5-26.5,5.7c-14.7-2.9-20.3-0.6-28.2,8.4c-5.8,6.8-14.9,12-20.6,12
		c-5,0-12.4,4.5-15.2,10.7c-3.5,5.7-11.9,11.9-19.3,14.2c-9,2.2-15.6,10.7-23,31.1c-8.6,23.8-9.2,31.1-3,50.4
		c3.5,12.4,5.3,31,3,41.8c-3,13-13.2,27.1-36.2,47.6c-17.6,15.9-38.6,30-46.4,32.2C8665.6,5933.2,8652.5,5930.5,8640,5923.6z
		 M8336.7,5553.5c-2.3-8.6-0.6-18.2,3.4-22.7c5.6-6.8,4-12.4-9.1-29.3c-8.3-12-20.9-27.2-27.1-33.6c-6.8-6.7-20.8-24.2-31.8-38.4
		c-10.8-14.1-32.8-36.8-49.2-49.9c-15.9-13.5-30-28.9-31.7-33.9c-2.3-8-9-10.2-26.1-10.2c-19.7,0-23-1.8-23-11.3
		c0-6.3-3.6-13.1-7.3-14.8c-4.5-1.7-16.5-20.3-26.8-41.9c-12.9-26.6-22.5-39.5-30-40.7c-6.3-1.1-16.9-10.8-23-22.8
		c-6.8-11.2-23.5-29.4-37.5-40c-14-11.4-32.8-27.8-42.4-36.8c-9.1-9.7-27.6-22.7-40.7-28.9c-13-6.9-26.6-17-30.1-23.8
		c-3.9-6.2-14.7-15.3-24.9-19.3c-9.7-4-22.6-13-28.2-19.3c-6.2-6.8-17.1-11.7-23.8-11.7c-7.8,0-24.4-10.9-42.3-28.4
		c-15.9-15.3-33.7-28.3-39.1-28.3c-5.7,0-13.3-3.9-17.2-8.6c-3.9-4.4-11.2-8.4-16.4-8.4c-5.5,0-23.1-11.4-39.4-25.5
		c-16.5-14.1-33.9-25.4-39.2-25.4c-5.6,0-19.3-6.2-30.5-14.3c-11.4-7.8-23.9-14-26.6-14c-3.6,0-6.4,2.8-6.4,6.2
		c0,3.4,2.8,10.7,6.4,17c3.9,8.5,3.9,13.5-0.6,18.6c-4,5.1-4,12.4-0.7,21.6c3,7.3,8.6,16.3,12.4,19.7c4.6,3,14.7,7.2,22.6,9.1
		c7.8,2.3,35.1,15.3,60.5,29.8c25.5,14.3,46.5,28.5,46.5,31.3c0,2.8,3.5,5.1,7.3,5.1c3.4,0,28.5,19.3,54.3,42.5
		c25.9,23.3,49.8,42.3,52.6,42.3c3,0,19.3,10.9,36.9,24.4c17,13.1,36.9,27.2,43.5,31.7c6.2,4.5,17,13,23.3,18.2
		c6.2,5.6,18.2,11.3,26.6,13.6c7.9,2.2,28.3,17.5,44.2,34.5c15.9,17,32.2,30.5,35.5,30.5c4.1,0,13.7,6.8,22.7,14.3
		c8.6,7.3,15.3,16.5,15.3,19.7c0,3.4,10.2,16.9,22.6,30.6c13,13.6,30,26.1,39,27.7c12.4,2.9,16.3,6.3,16.3,17.7
		c0,7.8,6.3,22,14.9,31.7c8,9.6,14.6,20.3,14.6,23.8c0,2.8,10.9,16.8,24.4,31c13.1,13.6,33.4,34.5,45.3,45.8
		c12,11.3,31.2,23.8,42.5,27.2c11.7,3.3,23.3,11.3,26.5,18.1c3,6.8,7.5,12.4,10.3,12.4C8338.4,5567.7,8338.8,5561.5,8336.7,5553.5z"
		/>
	<path d="M6544.6,5797.5c-19.9-16.4-45.9-41.3-58.5-54.9c-12.3-13.6-37.9-39-56.5-56.6c-18.6-17-43.7-36.8-54.8-44.1
		c-12.1-6.8-26.8-19.8-33-28.9c-6.2-9.1-17.6-18.1-24.4-20.4c-6.7-2.1-15.9-8.4-19.8-14.1c-4-6.2-10.8-10.7-14.7-10.7
		s-13-6.2-20.4-14.1c-7.5-7.9-17.5-14.1-22.6-14.1c-5.1,0-18.1-8-27.7-17.6c-13.7-13-22.1-16.4-31.8-14.1c-10.7,2.8-13.5,1-15.2-9.1
		c-1.2-6.8-5.2-13.6-9.6-14.7c-5.9-1.7-6.8,0-4,7.9c2.3,5.6,6.2,27.2,8.4,47.6c2.8,20.3,10.2,47.5,17.1,59.9
		c6.8,13,14.6,37.4,18,53.8c3,17.1,6.9,41.9,8.6,56.1c2.7,24.4,1.6,26.1-22.5,47l-25.6,21l-63.8,2.8c-35.3,1.7-82.8,0.5-105.9-2.3
		c-32.8-3.9-45.8-9.1-62.3-22.1c-11.4-9.1-32.2-22.7-45.9-29.4c-14.1-7.4-33.8-19.8-44.7-27.8c-10.7-7.9-24.9-19.9-31.7-26.1
		c-6.8-6.3-23.7-19.8-37.4-30c-13.5-10.2-41.2-31.1-61.7-47c-20.3-15.9-38-30.5-39.6-32.8c-1.8-1.7-13.1-10.7-25.6-20.3
		c-12.4-9.1-31.2-25.5-41.2-36.2c-10.1-11.4-29.6-28.9-43.7-40.2c-13.5-10.7-43.5-35.1-66.1-53.8c-22.8-18.6-53.8-44.7-69.7-58.4
		c-15.2-13.5-34.7-33.3-43-43.5c-7.9-10.2-25-27.8-38.5-39.2c-13.7-11.2-30.6-20.3-37.4-20.3c-9.7,0-16.4-5.1-22.7-18.1
		c-5-10.1-16.4-26.6-25-36.7c-8.9-9.6-22.6-21-30-25.1c-6.8-3.9-16.3-11.3-20.3-17.5c-4-5.6-10.7-10.1-14.2-10.1
		c-4,0-14.1-7.3-22.6-16.5c-8.3-9-23.8-19.3-34-22.7c-10.1-3.8-25.5-16.2-34.9-29.3c-9.2-12.4-22.2-23.8-29.5-25.5
		c-6.8-1.7-19.2-11.9-27.1-22.6c-8-10.7-20.9-21-28.3-22.7c-7.3-1.7-20.3-11.8-28.3-22.1c-7.9-10.7-14.3-21.4-14.3-24.2
		c0-3-11.2-15.4-24.8-27.3c-13.6-12.4-33.5-28.9-43.5-37.9c-10.9-8.4-30.1-24.9-43.7-36.3c-13.5-11.3-29.3-29.3-35.5-39
		c-6.4-10.2-19.8-23.3-30.1-29.4c-10.8-6.3-28.3-11.3-38.9-10.7c-12.7,0.5-25.1-3.5-32.3-10.2c-6.3-5.6-11.4-13.5-11.4-18.2
		c0-4.4-6.8-16.8-14.7-27.7c-8.4-10.6-19.7-19.2-26-19.2c-5.6,0-22.6-6.2-37.3-14.2c-14.7-7.9-37.9-23.1-52-33.3
		c-14.2-10.7-29.6-19.9-34-19.9c-4.6-0.5-11.9-5.6-15.3-11.2c-4.1-5.8-14.9-14.8-25.1-19.9c-10-5.1-19-7.9-20.8-6.2
		c-1.9,1.2,0.6,10.3,4.6,19.3c3.8,9.7,15.2,23.3,25.4,31c10.1,8.2,20.3,21.7,22.6,30.1c1.7,8.5,9.6,22.1,16.9,30
		c7.5,7.9,17.6,23.1,22.1,33.8c4.5,11.4,13.6,25.1,20.3,31.2c6.9,6.3,17.6,20.8,23.2,32.7c6.4,11.4,16.5,24.4,22.7,28.3
		c6.2,3.5,16.5,17.5,22.7,31.2c6.2,13.5,16.8,27.2,23.7,30c6.9,3.4,27.8,31.6,46.4,63.4c22.8,37.9,50.4,74.6,82.1,107.6
		c26.7,27.7,56,55.9,66.4,62.7c9.5,6.2,33.3,24.4,52.5,39.2c19.3,14.6,44.2,30,55.5,33.8c11.2,4,23.1,11.9,26.5,18.2
		c3,6.2,45.3,51.4,93.3,100.8c48.3,48.6,90.5,88.9,94.7,88.9c4,0,21.5,14.6,39.5,32.8c18.2,18.1,37.5,34.5,43.1,36.8
		c5.5,2.3,14.2,11.9,19.9,21.5c5.1,10.2,15.8,26.1,23.7,35.7c8,9.6,19.3,24.3,24.2,32.7c5.2,8.5,9.8,26.6,9.8,39.7
		c0,13.6-3.4,30.5-7.5,38c-3.4,7.3-11.8,16.3-18.2,19.7c-6,3.5-21.9,13.1-34.9,21.6c-13.1,8.4-27.3,15.9-31.7,15.9
		c-4.7,0-11.5-4.1-15.4-8.6c-3.9-4.5-10.7-8.6-15.2-8.6c-4.5,0-15.4-3.8-24.4-8.4c-9.6-5.1-24.4-22.7-36.2-44.2
		c-10.9-19.3-24.4-39.7-30-44.7c-5.8-5.1-16.5-18-24.4-28.4c-8-10-28.3-32.2-45.3-48c-17-16.4-34.1-30-38-30
		c-3.4,0-10.1-4.5-14.1-10.1c-4.1-5.6-25.5-22.1-47.6-36.8c-22.7-14.7-43-26.5-45.3-26.5c-2.8,0-11.4-5.2-19.3-11.4
		c-7.9-6.3-18.7-11.3-23.9-11.3c-4.9,0-11.7-4.4-15.2-9.6c-2.8-5.6-7.3-7.9-9.6-5.6c-2.2,2.1-1.7,21.5,1.8,42.9
		c3.4,22,10.8,48.2,15.8,58.4c5.5,10.1,11.9,35.1,14.1,55.4c2.3,20.4,7.3,54.4,11.4,75.4c5.1,29.4,5.1,42.4,0,53.8
		c-3.5,8.9-22.1,24.8-44.8,38.9c-21.4,13.7-46.3,26.1-56.1,27.8c-12.4,2.8-23.2,0-36.7-8.6c-10.2-6.2-35.3-15.1-55.6-20.3
		c-19.7-4.5-43.5-8.6-52.5-8.6c-9.1,0-25-6.7-35.7-15.2c-10.7-9-37.4-34-58.9-56.1c-21.5-22.1-50.2-45.9-64.6-53.2
		c-14.1-7.4-35.1-20.9-46.3-30.5c-10.8-9.6-34.6-31.1-52.1-47.5c-17.5-16.9-44.2-38.5-60-48.8c-15.3-10.1-32.8-19.6-37.8-22.1
		c-5.1-1.6-14.4-11.9-19.3-22c-5.1-10.2-22.6-32.8-38.5-50.3c-15.8-17-43-47.8-59.9-66.8c-17-19.9-37.4-41.9-45.4-49.9
		c-7.3-7.9-16.3-19.9-19.9-27.1c-2.8-6.8-13.4-21.7-22.5-31.7c-9.7-10.7-30-29.3-45.4-41.9c-15.8-12.4-48-41.8-71.9-66.2
		c-23.5-23.8-49.7-47.5-57.6-52.6c-7.9-5.1-17-18.2-20.3-28.2c-3.5-10.9-11.5-21-17.6-22.7c-5.7-2.4-10.9-5.6-10.9-8.6
		c0-2.8-52.7-57.6-116.5-122.3c-65.1-65.1-118.8-123.9-122.2-133.6c-3.5-10.2-14.3-20.3-27.9-27.7c-11.9-5.7-22-14.3-22-18.1
		c0-3.9-7.4-14.1-16-22.6c-8.4-8.6-18-15.3-21.5-15.3c-2.7,0-17-10.2-31.1-22.6c-20.3-17-28.8-30.6-38.9-57.9
		c-6.8-19.6-21-56-31.8-80.8c-10.1-24.9-20.4-56.1-22.1-69.6c-2.8-17-1.1-27.8,4.5-37.5c6.4-9.5,16.5-14.1,36.3-16.8
		c14.9-2.2,38-5.1,50.9-6.2c13.6-1.1,26-3.4,28.4-4.5c2.8-1.7,27.2,1.7,54.9,7.9c27.7,5.6,56,9,62.8,7.2c8.6-2.3,13.5,0,15.9,5.8
		c1.7,4.5,15.8,14.7,30.6,22.5c14.8,7.9,38.9,25.7,54.4,39.6c14.6,13.8,36,30.6,48,36.8c11.4,6.9,39.6,21.1,62.3,31.7
		c22,11.4,40.7,22.7,40.7,25.6c0,3.2,2.9,5.6,6.2,5.6c4,0,18.3,11.4,32.9,24.8c14.2,14.2,39.2,34.5,54.4,45.4
		c15.9,10.8,39.1,24.9,52.5,31c13.1,6.3,24,13.8,24,16.5c0,2.2,9.6,10.2,21.4,16.9c11.3,6.8,26.1,16.9,32.3,22.1
		c6.3,5.6,15.9,17,21,25.4c5.6,8.5,16.2,18.8,23.8,22.7c7.3,3.9,33.4,22.7,57.8,41.3c24.2,18.7,48.6,36.9,53.8,39.6
		c5.5,3.4,26.5,15.2,46.9,27.1c20.5,12,38.6,23.8,40.2,26.6c1.7,3.4,9.6,5.8,17.5,5.8c7.5,0,13.6-2.3,13.6-5.1
		c0-2.2-5-11.4-11.2-19.3c-6.3-8-11.3-17-11.3-20.8c0-4-5.1-13.1-11.4-21.1c-6.1-7.8-11.3-19.3-11.3-24.9c0-5.6-5.2-13.1-11.4-16.4
		c-6.2-3.5-14.7-13.1-19.3-21.5c-4.5-8.5-29.9-40.7-56.5-71.2c-26.5-30.6-48.5-57.3-48.5-59.4c0-2.8-9.3-16.5-20.5-31.1
		c-10.7-14.7-21.5-35.1-23.1-46c-2.9-16.3-0.8-21.4,15.8-36.6l19.2-17.6l67.9,3.3c39.6,2.3,82,8.5,101.8,14.7
		c18.7,5.8,41.9,10.8,51.6,10.8c9.6,0,20.8,4,24.9,8c3.5,4.4,21,11.9,38.5,15.3c25.9,6.2,38.6,13.1,62.8,36.1
		c17.1,15.4,42.6,40.3,57.1,55.5c14.8,14.7,28.9,26.7,32.3,26.7c2.8,0,30.6,28.2,61.2,63.4c33.8,39.6,68.6,72.4,90,86.6
		c18.8,12.5,49.8,35.1,68.5,50.4c18.6,14.6,36.8,30,39.6,33.9c3.4,4.1,31.2,26.1,62.2,49.9c31.3,23.7,66.8,52.7,79.2,64.5
		c12.5,11.9,31.7,27.7,42.4,35.1c10.9,7.4,25,18.2,31.2,24c6.3,5.6,36.8,34.5,68.6,64.4c31.2,30,60,54.4,64,54.4
		c4,0,25.6,15.9,48.1,34.5c22.2,19.3,43.1,40.8,47,47.5c3.5,6.8,22.1,20.4,40.9,30.6c18.6,9.6,35.9,21.4,38.4,25.5
		c2.8,4.5,18.7,23.2,36.1,42.4c17.7,18.8,34,34.6,35.8,34.6c2.1,0,13.6,6.7,24.9,15.8c11.4,8.5,22,16.9,22.6,19.8
		c1.1,2.4,19.3,11.9,39.6,21.6c21,9.5,42.6,21.9,48.7,27.1c5.6,5.1,12.4,14.6,15.2,22.1c2.8,7.9,11.4,14.1,22.3,16.4
		c10.1,1.6,29.1,15.2,46.8,32.1c15.9,15.9,37.3,32.4,47,36.3c9.6,4.4,20.9,13.5,24.8,20.9c5.3,9,15.9,15.9,33.4,19.9
		c14.1,3.4,41.4,9,59.5,11.7c18.8,2.9,34.7,4.1,36.3,2.9c1.2-1.6,0.5-9.7-1.2-17.5c-2.3-8-17.6-28.8-34.5-45.9
		c-17.2-16.9-32.3-36.1-34-41.7c-1.8-5.8-8.5-12.5-14.2-14.3c-5.6-1.6-12.4-7.9-14.1-13.6c-1.7-5.6-23.1-29.9-48.1-54.3
		c-24.9-23.8-45.3-45.8-45.3-48.6c0-2.8-3.4-5.1-7.9-5.1c-4.6,0-9.2-2.8-10.2-6.2c-1.2-3.5-36.2-43.5-78.2-88.9
		s-96.8-103.2-122.3-128.1c-25-25.4-54.3-53.7-65.1-62.6c-10.2-9.6-28.3-29.6-39.1-44.1c-10.8-14.8-32.8-40.5-48.6-56.8
		c-15.9-16.3-60-58.9-98.5-94.6c-37.9-35.6-82.2-78.6-98-95c-15.9-16.5-34.5-31.1-42-32.8c-7.3-2.3-12.8-5.1-12.8-7.3
		c0-1.9-10.3-16.4-23.2-31.6c-12.6-16.1-37.9-44.8-56.7-65.3c-18.1-20.4-43-46.9-55.4-59.3c-12.5-12.5-27.8-33.5-33.9-46.5
		c-6.8-13-11.9-31.7-11.9-41.2c0-13,3.4-18.9,13-22.3c9.5-3.9,26.5-1.6,55.5,6.2c23.1,6.4,52.6,18.2,66.1,27.3
		c13.5,9.1,31.7,17.4,40.2,19.7c8.5,1.8,28.9,15.8,44.7,31.2c17.6,16.3,35,28.3,42.5,28.3c6.8,0,21,5.2,31,11.3
		c9.8,6.3,18.2,14.8,18.2,19.2c0,4,3.9,10.8,8.6,14.8c4.5,3.9,8.3,10.6,8.3,15.9c0,5,5.8,16.9,12.7,27c6.6,9.7,24.9,26,40.2,36.8
		c15.2,10.3,32.1,27.8,37.9,39.2c5.6,10.7,20.9,32.8,33.9,48c13,15.8,32.3,32.3,43,37.4c10.2,5.6,36.4,24.9,57.1,43.1
		c21,18.6,44.7,37.8,52.7,43c7.9,5.6,24.4,16.3,36.8,24.9c12.6,8.5,25.4,15.4,28.4,15.9c3.2,0,14,6.2,23.6,13.6
		c10.2,7.9,19.9,18,21.6,22.5c1.7,5.1,15.9,18.2,31.2,28.9c15.8,10.9,36,26.8,45,35.7c9.2,8.5,20.5,15.2,25.1,15.2
		c4.5,0,21.6,13.8,37.4,30.1c15.8,15.8,36.6,40.1,46.4,53.1c9.5,13,34.5,35.1,54.8,48.7c20.4,14.1,45.4,29.4,55.5,34
		c9.7,5.1,34,24.7,53.3,43.5c19.8,18.7,39.5,34.1,43.4,34.1c4.5,0,25.1,16.3,45.4,36.1c20.8,19.7,53.3,46.4,71.8,58.8
		c18.7,12.4,40.9,24.3,48.6,26.7c7.9,1.7,21,10.7,28.9,19.3c7.9,8.5,27.2,24.2,42,35.1c14.6,10.7,45.7,37.4,69.4,59.5
		c26.7,24.9,53.3,44.1,70.9,50.9c14.6,5.7,28.9,14.7,30.4,19.3c1.3,4.5,9,15.3,17.1,23.7c10.1,10.9,18.1,14.7,26,12.5
		c9.1-2.2,16,1.7,24.9,14.2c6.9,9.7,15.4,17.6,18.1,17.6c3.5,0,5.8-6.3,5.8-13.7c0-8.5-12-28.9-29-49.8
		c-15.8-19.8-32.8-35.7-38-35.7c-6.6,0-9-4-7.7-13c1.1-8.5-0.6-11.3-6.4-9.7c-3.8,1.8-11.2-1.1-16.3-6.6
		c-4.5-5.8-11.7-19.9-15.4-31.3c-3.9-11.9-12.3-26-19.2-31.6c-6.8-5.2-24.9-23.8-40.8-40.8c-15.3-17.1-35.6-33.3-44.7-36.8
		c-11.9-4-18.2-10.8-21.5-23.2c-2.3-9.6-10.2-23.8-18.2-31c-7.5-7.4-22.1-21.6-32.3-31.3c-10.8-9.6-31.1-25.4-45.2-35.6
		c-14.8-10.3-29.6-23.8-32.9-31.2c-3.9-6.7-14.2-17-23.2-23.1c-9.6-6.2-17-13-17-15.9c0-2.3-10.9-14.7-23.7-28.2
		c-13.7-13-36.4-31.7-50.5-41.4c-14.8-10.2-35.6-31.7-47-48.7c-11.3-17-45.8-56.6-77-87.8c-31.1-31-56.7-59.4-56.7-63.4
		c0-3.3-5.6-12-12.3-18.6c-6.8-6.8-20.5-24.4-30-39c-10.3-14.3-19.9-30.1-21.6-35.1c-1.7-5.1-13.7-15.9-26.5-23.9
		c-12.5-7.9-22.7-16.3-22.7-19.3c0-2.2-7.3-14.6-17-26.6c-9.1-12.4-23.3-28.2-31.2-36.1c-7.9-8-18-27.2-22.6-42.6
		c-8-25.4-8-28.7,2.9-49.1c6.2-12,11.2-26.7,11.2-32.3c0-5.6,4-19.9,8.5-31.1c5.6-13,14.2-22.6,24.4-26.1c8.6-3.5,18.2-7.5,21.5-9.7
		c3.4-2.8,13-9,21.6-15.2c12.4-9.2,16.9-9.6,31.6-3.5c9,3.9,24.2,18.6,34,32.2c9,14.1,29.4,39.6,45.3,56.6
		c15.4,16.5,28.2,33.5,28.2,37.4c0,4,8,14.7,17.7,24.3c9.5,9,25.4,27.8,34.5,42c9.4,14.1,24.9,33.3,33.8,43
		c9.3,9.6,20,27.6,24.5,39.6c5.1,14.7,11.8,23.2,20.3,24.8c8.4,2.3,20.9,17,36.1,42.4c13.1,22.1,39.7,57.2,60.2,78.7
		c19.9,20.9,38.5,42.4,41.3,48.2c2.7,5.1,11.3,16.3,19.8,25.4c7.8,8.6,24.2,22.1,35.7,29.3c11.3,7.6,21.9,18.2,23.7,23.8
		c2.1,6.2,26.1,30.6,53.3,54.4c27,23.8,66.2,59.5,86.5,78.7c20.6,19.3,47.5,43.1,60.7,52.1c13,9.6,45.7,42.4,72.3,73.6
		c27.2,31,66.2,74.6,86.7,96.7c20.3,21.5,46.3,52,57.1,66.8c10.7,14.7,25.4,33.9,32.8,43c6.8,8.5,12.5,19.8,12.5,24.4
		c0,5,2.9,10.7,5.6,12.4c3.5,1.7,5.7,12.4,5.7,23.8c0,11.3-4,24.8-9.1,30.6c-4.9,5.6-10.6,24.8-12.8,42.9
		c-2.5,18.1-7.4,39.1-11.4,47c-4.8,7.9-13.8,22.7-21.6,32.9c-12.9,17-15.9,18.1-49.2,18.1c-22.1,0-39,2.8-46.4,8.6
		c-5.7,4.5-13.6,8.4-17.7,8.4C6583.6,5828.1,6564.4,5814.5,6544.6,5797.5z M4730.8,5417.6c5.7-11.2,11.9-31.7,13-44.7
		c2.3-19.3-0.5-27.7-14.5-48.6c-9.6-14.2-17.6-28.4-17.6-31.3c0-3.2-6.3-15.1-14.1-26.5c-8.1-11.3-14.3-25.9-14.3-32.2
		c0-6.2-2.8-13-6.2-15.4c-3.4-1.6-10.6-14.7-16.5-28.2c-6.1-13.5-19.1-33.4-29.3-43.6c-10.1-10.7-24.4-25.5-31.2-32.8
		c-7.3-7.3-16.9-17.5-21.4-22c-4.5-4.5-14.6-15.5-23.3-23.2c-7.7-8.6-19.7-19.9-25.9-25.6c-5.8-6.2-14.7-15.2-19.9-20.4
		c-4.5-5.1-17-13.4-27.7-18.6c-12-5.6-20.3-14.7-22.7-23.8c-2.1-8.5-10.6-17-21.4-22.1c-9.6-4-28.8-19.3-42.4-33.4
		c-14.3-13.7-30.5-27.2-36.8-28.9c-6.8-2.4-25.6-14.2-42.5-27.2c-16.4-13.1-39-28.9-49.3-36.2c-10.8-6.8-19.2-14.7-19.2-17.4
		c0-3-7.4-9.7-16.5-15.9c-9.1-5.8-31.1-19.9-49.7-32.4c-18.2-11.9-39.2-26.1-47.1-31.7c-7.9-5.1-23.1-14.1-33.8-19.6
		c-10.7-5.8-29-18.2-39.6-27.8c-10.9-9.7-45.4-35.2-76.4-56.1c-31.2-20.9-74.3-51-96.3-66.2c-21.4-15.4-56.1-35.1-75.8-43.6
		c-32.9-14.1-36.2-14.1-41.3-5.7c-2.8,5.1-8.6,9.5-13,9.5c-4.5,0-6.2-3.9-4.5-11.1c2-7.5-0.7-14.8-7.4-19.8
		c-6.3-4.5-15.5-8.4-21.6-8.4c-8.6,0-9.6,2.8-6.2,15.2c1.7,8.4,9,23.1,15.9,32.3c6.2,9.6,20.9,28.2,31.7,41.8
		c10.7,13.1,23.1,23.8,26.6,23.8c3.4,0,11.3,6.8,16.3,15.8c5.6,8.6,20,28.3,31.8,43.6c11.4,15.8,23.1,35.2,24.9,43.7
		c2.3,8.4,14.1,26.6,26.1,40.7c11.8,13.6,22.1,30,22.1,35.7c0,6.3,8,21.6,17.5,34.5c9.7,13,19.9,23.8,22.1,23.8
		c2.8,0,9.2,8.5,14.2,18.6c4.4,9.6,29.4,41.3,55.6,70.2c25.3,28.3,55.9,63.4,67.8,77.1c11.4,14,21,27.1,21,29.3
		c0,2.4,8.4,13.7,18.6,26.1c10.8,11.8,29.5,29.4,41.8,38.6c12.6,8.9,28.4,25.4,35.3,36.6c7.3,11.4,31.7,34.7,54.9,52.2
		c23.1,17.5,47.5,38.4,54.4,47.5c7.2,8.4,20.9,19.3,29.9,23.8c9.6,5.1,23.8,10.1,32.3,12.4c11.3,2.3,16.9,9.2,22.5,27.2
		c7.5,21,11.9,25.5,32.4,33.4c12.9,4.5,26,11.3,27.7,14.8c2.1,3.4,19.8,14.1,38.5,23.7c19.3,9.6,38.3,17.6,42.4,17.6
		c4.5,0,21.6,9,38.5,19.9c17,10.7,40.2,21.4,50.8,23.1c11.5,2.2,24.6,6.6,28.9,10.7c4.6,3.9,12.6,8.5,17,9.5
		c4.6,1.8,16.5-0.5,25.6-3.9C4713.4,5441.4,4724.5,5430.6,4730.8,5417.6z"/>
	<path d="M3926.5,5590.4c-7.4-2.9-13-10.2-13-15.9c0-5.8,3.4-17,7.5-26.1c5.5-12.3,8.9-14.7,20.7-11.9c8,2.3,34.7,3.4,59.5,2.9
		c40.2-0.6,48-2.3,69.6-17.6l24.9-17l19.4,17.6c18,15.8,22.5,17,63.8,17c24.3,0,56.1,1.7,70.8,3.4c14.1,2.2,25.9,5.6,25.9,8.5
		c0,2.8-5.6,7.9-12.4,11.9c-7.3,3.5-32.2,9.7-55.9,13c-24.4,3.4-50,4.6-59.5,1.8c-9.2-2.8-43-3.4-76-2.3
		c-34.9,1.6-67.8,6.2-80.2,11.3c-12,5.1-28.4,9.1-36.8,8.4C3946.4,5595.4,3933.4,5593.1,3926.5,5590.4z"/>
	<path d="M4298.4,5571.2c-3.5-4.5-5.6-14.2-4.5-21.5c1-10.8,5.7-13.6,22.7-14.7c11.3-1.2,28.8,2.2,37.8,7.3
		c9.7,4.4,17.6,12.4,17.6,16.5c0,4.4-7.9,10.6-17.6,14.1c-10.1,3.3-24.8,6.2-33.3,6.2C4312.7,5579,4302.5,5575.2,4298.4,5571.2z"/>
	<path d="M6559.7,5239.3c-1.6-2.8,4.7-13.5,13.7-23.7l16.2-18.6l6.8,15.2c4.1,8.6,5.7,19.3,4.1,23.8c-2.4,5.7-10.2,9.1-20.4,9.1
		C6571.1,5245,6562,5242.8,6559.7,5239.3z"/>
	<path d="M6607.9,5214.4c0-7.9,3-15.9,5.8-17.5c3.3-2.4,9.5-0.6,14.2,2.8c4.5,4,8.4,12,8.4,17.6c0,7.9-3.9,10.9-14.2,10.9
		C6610.8,5228.1,6607.9,5225.2,6607.9,5214.4z"/>
	<path d="M1460.2,5017.5c-5.1-6.9-9.1-14.8-9.1-17.5c0-3,6.8-4,15.9-3c11.9,1.3,15.9,5.2,16.8,17.7c1.2,10.7-0.5,15.2-6.7,15.2
		C1472.6,5029.9,1464.7,5024.4,1460.2,5017.5z"/>
	<path d="M1363.3,4934.2c-15.3-11.7-35.6-23.1-44.2-25.4c-10.7-2.2-18.6-9.7-23.8-22.1c-3.8-10.2-5.8-20.4-3.4-22.7
		c2.9-2.2,11.3-2.8,19.9-0.6c7.9,1.8,19.7,10.9,25.9,19.8c6.2,8.6,16.5,17.6,22,19.3c6.2,1.8,20.5,14.8,31.7,28.3
		c16.5,20.3,18.8,25.5,10.2,24.9C1396.2,4955.7,1379.1,4946.1,1363.3,4934.2z"/>
</g>
<path d="M49.7,113.8c-0.4-0.3-1.1-0.6-1.4-0.9c-0.3-0.2-0.7-0.5-0.7-0.5c-0.1-0.1-0.3-0.3-0.6-0.6c-0.4-0.5-0.6-0.6-1-0.9
	c-0.4-0.3-0.5-0.4-0.6-0.5c-0.1-0.1-0.2-0.3-0.6-0.5c-0.3-0.2-0.6-0.4-0.7-0.4c-0.1,0-0.5-0.4-0.9-0.7c-0.4-0.4-0.9-0.9-1.2-1.2
	c-0.4-0.4-0.5-0.5-0.8-0.7c-0.2-0.1-0.3-0.2-0.4-0.3c-0.1-0.1-0.3-0.3-0.5-0.5c-0.2-0.2-0.5-0.5-0.7-0.7c-0.2-0.2-0.6-0.6-0.9-0.9
	c-0.3-0.3-0.7-0.7-0.8-0.8c-0.1-0.1-0.3-0.4-0.4-0.5c0,0-0.1-0.1-0.1-0.2c-0.5-0.5-1-1.1-1.4-1.6c0,0,0,0,0-0.1
	c-0.7-0.8-1.3-1.6-1.8-2.5c-0.1-0.1-0.2-0.2-0.3-0.4c-0.4-0.5-0.8-1.1-0.9-1.3c-0.1-0.2-0.3-0.5-0.4-0.8c-0.1-0.3-0.4-0.7-0.5-1
	c-0.1-0.3-0.3-0.6-0.4-0.8c-0.1-0.2-0.2-0.5-0.4-0.9C31.1,93.3,31,93,31,92.8c0-0.1,0-0.3,0-0.3c0,0,0-0.1-0.1-0.3
	c0-0.1-0.1-0.3-0.1-0.4c0-0.1,0-0.1,0-0.2c-0.3-0.1-0.6-0.2-0.9-0.3c0,0.2,0.1,0.5,0.1,0.7c0.1,0.2,0.2,0.5,0.2,0.5
	c0,0,0.1,0.2,0.1,0.5c0,0.3,0.1,0.5,0.2,0.7c0.1,0.2,0.3,0.6,0.4,0.9c0.1,0.4,0.4,0.9,0.5,1.1c0.1,0.3,0.4,0.7,0.5,0.9
	c0.2,0.2,0.3,0.6,0.4,0.7c0.1,0.2,0.2,0.4,0.3,0.5c0.1,0.1,0.4,0.5,0.6,0.8c0.2,0.4,0.5,0.8,0.7,1c0.1,0.2,0.4,0.5,0.5,0.6
	c0.1,0.1,0.3,0.3,0.3,0.5c0.1,0.2,0.3,0.4,0.5,0.6c0.2,0.2,0.5,0.5,0.5,0.6c0.1,0.1,0.3,0.3,0.4,0.5c0.2,0.1,0.4,0.4,0.5,0.6
	c0.1,0.2,0.3,0.4,0.4,0.5c0.1,0.1,0.4,0.4,0.6,0.6c0.2,0.2,0.4,0.5,0.5,0.6c0.1,0.1,0.5,0.6,1,1c0.5,0.5,1.1,1.1,1.4,1.4
	c0.3,0.3,0.9,0.9,1.2,1.2c0.3,0.3,0.9,0.8,1.2,1c0.3,0.3,0.9,0.8,1.4,1.2c0.5,0.4,1.1,0.9,1.3,1.1c0.2,0.2,0.6,0.5,0.9,0.7
	c0.2,0.2,0.7,0.6,1,0.9c0.3,0.3,0.7,0.5,0.8,0.6c0.2,0.1,0.3,0.2,0.4,0.2c0.1,0,0.2,0.1,0.4,0.3c0.2,0.1,0.1,0,0.3,0.1
	c0.2,0.1,14-0.7,14.3-0.5c-0.4-0.5,0,0-0.3-0.5C63.9,113.5,49.8,113.8,49.7,113.8z"/>
</svg>
